<?xml version="1.0" encoding="utf-8"?>
<!-- Generator: Adobe Illustrator 18.1.1, SVG Export Plug-In . SVG Version: 6.00 Build 0)  -->
<svg version="1.1" xmlns="http://www.w3.org/2000/svg" xmlns:xlink="http://www.w3.org/1999/xlink" x="0px" y="0px"
	 viewBox="0 0 288 288" enable-background="new 0 0 288 288" xml:space="preserve">
<g id="Layer_1">
	<g>
		<path fill-rule="evenodd" clip-rule="evenodd" fill="#222B3A" d="M45.2,189.9c0,0-7.5-5.4-7.9-7.9c-0.4-2.5,4.8-5.5,4.5-7.3
			c-0.3-1.8-6.2-4.6-6.2-5.9c0-1.3,6-4.2,6.4-5.6c0.4-1.4-4.3-4.1-4-5.7c0.3-1.6,6.7-3.3,6.7-4.7c0-1.4-5.3-8.6-4.5-10.9
			s9.4-2.6,9.1-4.3c-0.2-1.7-3.7-4.1-3.7-5.8c0-1.7,7.9-2.8,8.5-5.6c0.6-2.8-2.8-9-2.1-9.8c0.6-0.8,8.5-0.3,9-2.4
			c0.5-2.1-0.8-9.1,2.8-9.5c3.7-0.4,7.8,1.7,9.2,0.9c1.4-0.8,1.5-6.6,3.3-6.4c1.7,0.2,6,2.7,8.6,3.4c2.6,0.6,9.6-8,11.6-6.4
			c2,1.6,3.8,8.4,3.8,8.4"/>
		<path d="M45,190c0,0-0.6-0.4-1.6-1.1c-1.1-0.7-2.6-1.8-4.4-3.4c-0.4-0.4-0.9-0.9-1.4-1.4c-0.2-0.3-0.5-0.5-0.7-0.9
			c-0.2-0.3-0.4-0.7-0.6-1.2c-0.2-1.1,0.2-2,0.7-2.8c0.5-0.8,1-1.4,1.5-2c0.5-0.6,1.1-1.3,1.5-1.9c0.2-0.3,0.3-0.6,0.3-0.7
			c0,0,0,0.2,0,0.1c0,0.1-0.1-0.1-0.2-0.2c-0.4-0.5-1.2-1-1.9-1.5c-0.8-0.5-1.6-1.1-2.5-1.7c-0.2-0.2-0.4-0.3-0.7-0.6
			c-0.2-0.2-0.5-0.4-0.8-0.9c-0.1-0.1-0.1-0.2-0.2-0.5c0-0.1-0.1-0.2-0.1-0.3l0-0.2c0-0.2,0,0.1,0-0.4l0-0.1l0-0.1
			c0-0.1,0-0.1,0.1-0.2c0.1-0.3,0.2-0.4,0.3-0.6c0.3-0.5,0.5-0.7,0.8-0.9c1-0.9,1.8-1.4,2.7-2.1c0.9-0.6,1.8-1.3,2.4-1.8
			c0.1-0.1,0.2-0.3,0.1,0c0-0.1-0.1,0.3,0,0.2l0-0.1l0-0.1c0,0,0,0.1,0,0.1c0,0.1,0,0.2,0,0.2c0,0,0,0,0,0.1c0,0.1,0,0.1,0,0
			c-0.1-0.2-0.5-0.6-0.8-1c-0.4-0.4-0.8-0.8-1.2-1.2c-0.4-0.5-0.9-0.9-1.3-1.6c-0.2-0.4-0.5-0.8-0.6-1.6c0-0.1,0-0.2,0-0.3l0-0.2
			c0,0,0.1-0.4,0.1-0.3l0-0.1c0-0.1,0.1-0.2,0.2-0.4c0.2-0.4,0.4-0.6,0.6-0.8c0.7-0.6,1.3-0.9,1.9-1.2c1.2-0.6,2.3-1,3.4-1.5
			c0.3-0.1,0.5-0.2,0.7-0.4c0.2-0.1,0.4-0.3,0.3-0.2c0,0,0,0.1-0.1,0.2c0,0,0,0.1,0,0.1c0,0.2,0,0,0,0.1c0,0,0-0.1,0-0.1
			c0,0.1,0-0.1,0-0.2c-0.1-0.2-0.2-0.5-0.3-0.8c-1-2.2-2.3-4.5-3.2-7.1c-0.2-0.6-0.4-1.3-0.5-2.1c0-0.2,0-0.4,0-0.6
			c0-0.1,0-0.2,0.1-0.4c0,0,0.1-0.3,0.2-0.3c0.3-0.4,0.6-0.6,0.9-0.8c1.3-0.7,2.6-1,3.9-1.4c1.3-0.3,2.6-0.6,3.7-1.1
			c0.2-0.1,0.5-0.3,0.4-0.3c0,0,0,0,0,0.1c0-0.1,0-0.2,0-0.2c0-0.1-0.1-0.2-0.2-0.3c-0.3-0.5-0.7-1-1.1-1.5c-0.4-0.5-0.9-1-1.4-1.5
			c-0.4-0.6-1-1.1-1.2-2.1c0-0.1,0-0.2,0-0.4c0,0,0-0.2,0.1-0.3c0-0.1,0.1-0.2,0.1-0.3c0.2-0.3,0.3-0.5,0.5-0.6
			c0.3-0.3,0.7-0.5,1-0.7c0.6-0.4,1.3-0.6,1.9-0.9c1.2-0.6,2.5-1.1,3.4-1.8c0.5-0.3,0.9-0.7,1-1c0.1-0.1,0-0.2,0.1-0.5
			c0-0.1,0-0.5-0.1-0.7c-0.2-1.1-0.6-2.3-1.1-3.5l-0.7-1.9c-0.2-0.7-0.5-1.3-0.7-2.1c0-0.3-0.1-0.5-0.1-0.9c0-0.1,0-0.3,0.1-0.4
			c0-0.1,0.1-0.4,0.3-0.6c0.1-0.1,0.4-0.5,0.3-0.3l0,0c0.1-0.1,0.3-0.2,0.5-0.3c0.4-0.2,0.6-0.2,0.8-0.3c0.2-0.1,0.4-0.1,0.6-0.1
			c0.7-0.1,1.4-0.2,2-0.3c1.3-0.1,2.6-0.3,3.6-0.6c0.3-0.1,0.5-0.2,0.6-0.2c0.2-0.1,0.3-0.2,0.2-0.1c0,0-0.1,0.1-0.2,0.3l0,0.1
			c0,0.1,0,0,0,0l0-0.1c0-0.1,0-0.1,0-0.1c0-0.2,0-0.5,0-0.8c0-1.2-0.1-2.5,0-3.9c0-0.7,0.1-1.4,0.3-2.2c0.2-0.8,0.5-1.6,1.2-2.5
			c0.7-0.9,2-1.4,2.9-1.5l0.2,0l0.3,0c0.2,0,0.4,0,0.6,0c0.4,0,0.7,0,1.1,0c1.4,0.1,2.7,0.4,3.8,0.7c0.5,0.1,1.1,0.2,1.6,0.4
			c0.2,0,0.5,0.1,0.6,0.1c0.2,0,0.3,0,0.2,0c0,0-0.1,0-0.1,0.1c0.1-0.1-0.2,0.1-0.1,0.1l0,0c0,0,0.1-0.1,0,0
			c-0.1,0.1-0.2,0.2-0.2,0.2c0,0,0,0,0,0c0,0,0.1-0.2,0.2-0.4c0.2-0.4,0.3-0.9,0.5-1.4c0.2-0.5,0.3-1.1,0.5-1.7c0.2-0.6,0.4-1.2,1-2
			c0.2-0.2,0.4-0.4,0.7-0.7c0.3-0.2,0.8-0.4,1.3-0.5c0.2,0,0.5,0,0.7,0l0.2,0c0.1,0,0.4,0.1,0.5,0.1c0.7,0.2,1.2,0.4,1.7,0.7
			c1,0.5,1.9,0.9,2.8,1.4c0.9,0.4,1.8,0.9,2.6,1.2c0.2,0.1,0.4,0.2,0.6,0.2l0.1,0l0,0c0,0-0.1,0,0,0l0.1,0c0,0-0.1,0-0.1,0
			c0,0,0,0,0,0c0.1,0,0.4-0.1,0.8-0.2c0.7-0.3,1.4-0.8,2.1-1.3c0.7-0.5,1.4-1,2-1.5c1.3-1,2.6-1.9,4.1-2.6c0.4-0.2,0.8-0.3,1.3-0.4
			c0.5-0.1,1.2-0.1,1.8,0.4c0.6,0.6,1,1.2,1.2,1.8c1.1,2.3,1.4,4.1,1.7,5.3c0.3,1.2,0.4,1.9,0.4,1.9l-0.4,0.1c0,0-0.2-0.6-0.7-1.8
			c-0.5-1.1-1.2-2.9-2.4-4.7c-0.3-0.4-0.6-0.9-1.1-1.2c0.1,0.1,0.1,0-0.1,0.1c-0.2,0.1-0.4,0.2-0.7,0.3c-1,0.7-2.2,1.7-3.4,2.7
			c-1.3,1.1-2.5,2.3-4.3,3.4c-0.5,0.3-1,0.6-1.9,0.7c-0.1,0-0.2,0-0.4,0c-0.1,0-0.4,0-0.5,0l-0.1,0l-0.1,0l-0.1,0l-0.2-0.1
			c-0.3-0.1-0.5-0.1-0.8-0.2c-1-0.3-2-0.7-2.9-1.1c-0.9-0.4-1.9-0.8-2.8-1.2c-0.4-0.2-1-0.3-1.3-0.4c-0.1,0-0.1,0-0.2-0.1l-0.2,0
			c0.1,0,0.2,0,0.3,0c0.2,0,0.4-0.1,0.5-0.2c0.1-0.1,0.1-0.1,0.1-0.1c0,0-0.2,0.5-0.4,0.9c-0.1,0.5-0.3,1-0.4,1.5
			c-0.1,0.6-0.3,1.1-0.5,1.8c-0.1,0.3-0.3,0.7-0.6,1.1c-0.1,0.1-0.1,0.2-0.3,0.4c-0.1,0.1-0.3,0.3-0.5,0.5l-0.2,0.1l0,0
			c0,0-0.3,0.2-0.2,0.1c-0.2,0.1-0.4,0.2-0.5,0.2c-0.7,0.2-1.2,0.2-1.6,0.2c-0.4,0-0.8-0.1-1.1-0.1c-0.7-0.1-1.3-0.2-1.8-0.4
			c-1.1-0.3-2.2-0.5-3.3-0.6c-0.3,0-0.5,0-0.8,0l-0.3,0l-0.2,0l-0.2,0c-0.3,0-0.2,0-0.3,0.1c-0.1,0.1-0.3,0.4-0.4,0.8
			c-0.1,0.4-0.2,1-0.3,1.5c-0.1,1.1-0.1,2.3-0.2,3.7c0,0.4,0,0.7-0.1,1.1l-0.1,0.4l0,0.1l0,0.1l-0.1,0.2c-0.1,0.5-0.4,0.8-0.7,1.1
			c-0.5,0.5-1,0.8-1.4,1c-0.4,0.2-0.8,0.3-1.2,0.4c-1.5,0.4-2.8,0.4-4.2,0.5c-0.7,0.1-1.3,0.1-1.9,0.2c-0.1,0-0.3,0-0.4,0.1
			c-0.1,0-0.2,0.1-0.1,0c0.1,0,0.2-0.1,0.3-0.2l0,0c-0.2,0.2,0.1-0.2,0.2-0.2c0.1-0.1,0.2-0.4,0.2-0.4c0-0.1,0-0.2,0-0.2
			c0-0.1,0,0,0,0.1c0.1,0.4,0.3,1.1,0.5,1.7l0.6,1.9c0.4,1.3,0.8,2.7,0.9,4.2c0,0.4,0,0.8,0,1.3l0,0.2l0,0.1l0,0.1
			c0,0.1,0,0.2-0.1,0.3c-0.1,0.3-0.2,0.5-0.4,0.8c-0.6,0.9-1.3,1.3-2,1.7c-1.3,0.7-2.6,1.1-3.9,1.6c-0.6,0.2-1.3,0.4-1.8,0.7
			c-0.3,0.1-0.5,0.3-0.7,0.4c-0.1,0.1-0.1,0.1-0.1,0.1c0,0,0,0,0,0c0,0,0-0.1,0-0.1c0,0,0,0,0,0.1c0,0.3,0.4,0.9,0.7,1.4
			c0.4,0.5,0.8,1,1.3,1.5c0.4,0.5,0.9,1.1,1.2,1.8c0.1,0.2,0.2,0.3,0.2,0.6c0,0.1,0.1,0.2,0.1,0.3c0,0.2,0,0.4,0,0.6
			c-0.3,0.7-0.7,0.8-1,1c-1.4,0.6-2.6,0.8-3.9,1.2c-1.2,0.4-2.6,0.7-3.5,1.3c-0.2,0.1-0.4,0.3-0.5,0.5c0,0.1,0,0,0,0.1
			c0,0,0,0.1,0,0.1c0,0.1,0,0.2,0,0.3c0.1,0.5,0.3,1.1,0.5,1.7c1.1,2.3,2.5,4.3,3.8,6.6c0.2,0.3,0.3,0.6,0.5,0.9
			c0.1,0.2,0.2,0.3,0.2,0.7l0,0.1c0,0.1,0-0.1,0,0.2l0,0.2c0,0.3-0.1,0.5-0.2,0.7c-0.4,0.6-0.7,0.8-1,1.1c-0.3,0.2-0.6,0.4-0.9,0.6
			c-1.1,0.7-2.2,1.2-3.2,1.8c-0.5,0.3-0.9,0.6-1.1,0.8c0,0-0.1,0.1,0-0.1c0-0.1,0.1-0.1,0.1-0.2l0,0.1c0,0.2,0-0.2,0-0.2l0-0.1
			l0-0.1c0-0.2,0-0.1,0.1,0c0.2,0.3,0.6,0.7,1,1c0.4,0.4,0.8,0.8,1.3,1.2c0.4,0.5,0.9,0.9,1.4,1.7c0.1,0.2,0.2,0.5,0.3,0.8l0.1,0.3
			c0,0.1,0,0.3,0,0.5l0,0.2l0,0.1l0,0.1c0,0-0.1,0.4-0.1,0.3c0,0.1-0.1,0.2-0.1,0.3l-0.1,0.2c-0.1,0.2-0.2,0.2-0.2,0.4
			c-0.2,0.2-0.3,0.3-0.4,0.5c-1.1,1-2,1.5-2.9,2.2c-0.9,0.6-1.8,1.2-2.4,1.7c-0.1,0.1-0.3,0.3-0.2,0.2c0,0,0,0,0.1-0.2
			c0,0,0-0.1,0-0.1c0-0.1,0-0.1,0,0l0,0.1c0-0.4,0-0.2,0-0.3c0,0,0-0.1,0-0.1l0-0.1c0-0.1,0-0.1-0.1-0.1c0,0,0.1,0.1,0.2,0.3
			c0.1,0.1,0.3,0.3,0.5,0.4c0.7,0.6,1.5,1.2,2.3,1.8c0.8,0.6,1.6,1.2,2.3,2.2c0.2,0.3,0.4,0.5,0.6,1c0.1,0.3,0.2,1,0.1,1.4
			c-0.2,0.9-0.6,1.3-0.9,1.7c-0.6,0.8-1.3,1.4-1.9,1.9c-0.6,0.6-1.1,1.1-1.5,1.6c-0.4,0.5-0.6,1-0.6,1.3c0,0.3,0.4,1,0.7,1.4
			c0.3,0.5,0.7,1,1.1,1.4c1.5,1.7,2.9,3,3.8,3.8c0.9,0.8,1.4,1.3,1.4,1.3L45,190z"/>
	</g>
	<path fill-rule="evenodd" clip-rule="evenodd" fill="#222B3A" d="M116.8,113.8c-10.6-12.5-33.7-13.8-47.8-5.3
		C54.9,117,49.2,141,46.9,158.4c-2.3,17.4-4.7,38-1.4,41.7c6.8,7.6,61.4,5.6,61.4,5.6s12.7,0.2,14-11.5
		C125.6,167.8,127.4,126.3,116.8,113.8z M83.9,174.6c-0.4,1.3-1.4,2.5-2.8,2.7c-5.2,0.9-13.8,3.3-17.5-2c-2.9-4,0.9-8,4.7-9.3
		c0.8-0.3,1.5-0.5,2.2-0.6c0.7-0.4,1.4-0.6,2.2-0.6c0.4,0,0.8,0.1,1.1,0.2c0.5-0.2,1-0.3,1.6-0.3c0.9,0,1.7,0.2,2.3,0.7
		c0.2,0,0.3,0,0.5,0c1.2,0,2.1,0.4,2.7,1c0.9,0.3,1.6,0.9,2,1.7c1.1,0.8,2,2.3,1.9,3.7c0,0.1-0.1,0.9-0.1,1
		C84.9,173.6,84.4,173.8,83.9,174.6z"/>
	<g>
		<path fill-rule="evenodd" clip-rule="evenodd" fill="#222B3A" d="M47.8,201.7c0,0-23.5-0.4-25.4-2.1c3.8-3.5,17.9-11.5,24.6-10.4
			C53.8,190.4,47.8,201.7,47.8,201.7z"/>
		<g>
			<path d="M47.8,201.9c-1.1,0.3-2.1,0.4-3.2,0.6c-0.5,0.1-1.1,0.1-1.6,0.2c-0.5,0.1-1.1,0.1-1.6,0.1c-2.1,0.2-4.3,0.2-6.4,0.1
				c-1.1,0-2.1-0.1-3.2-0.2c-1.1-0.1-2.1-0.3-3.2-0.6c-1.1-0.2-2.1-0.5-3.2-0.8c-0.5-0.1-1.1-0.3-1.6-0.5c-0.3-0.1-0.5-0.2-0.8-0.3
				c-0.3-0.1-0.6-0.2-0.9-0.5l-0.6-0.5l0.6-0.5c0.7-0.6,1.4-1.1,2.1-1.6l2.1-1.6c1.4-1,2.8-2.1,4.3-3.1c0.7-0.5,1.5-1,2.3-1.4
				c0.8-0.5,1.6-0.9,2.4-1.3c1.6-0.8,3.3-1.5,5-2.1c1.8-0.6,3.6-1,5.7-0.9c0.3,0,0.5,0,0.8,0.1l0.4,0.1l0.1,0l0.2,0l0.2,0
				c0.3,0.1,1.2,0.3,1.7,0.7c1.2,0.7,2,2,2.3,3.2c0.3,1.2,0.2,2.3,0,3.2c-0.2,1-0.5,1.9-0.9,2.7c-0.7,1.7-1.7,3.2-2.9,4.6l-0.1,0.1
				L47.8,201.9z M47.7,201.5c0.2-0.8,0.4-1.6,0.5-2.4c0.2-0.9,0.3-1.7,0.4-2.5c0.1-0.8,0.1-1.6,0.1-2.4c0-0.8-0.2-1.5-0.4-1.9
				c-0.2-0.5-0.5-0.7-0.8-0.8c-0.1,0-0.2-0.1-0.2-0.1c0,0-0.3-0.1-0.5-0.1l-0.2,0c-0.1,0,0.1,0,0.1,0l0,0l0,0l0,0l-0.1,0l-0.2,0
				c-0.2,0-0.3,0-0.5,0c-1.4,0-3,0.3-4.6,0.7c-1.6,0.4-3.2,0.9-4.8,1.5l-4.8,1.8c-1.6,0.6-3.2,1.3-4.7,2.1c-1.5,0.8-3,1.8-4.2,2.9
				l0-0.9c0,0,0.3,0.1,0.5,0.2c0.2,0.1,0.5,0.1,0.7,0.1c0.5,0.1,1,0.1,1.5,0.1c1,0,2.1,0,3.2-0.1c1.1,0,2.1-0.1,3.2-0.1
				c1.1,0,2.1,0.1,3.2,0.2c2.1,0.2,4.2,0.4,6.3,0.7c0.5,0.1,1.1,0.1,1.6,0.2c0.5,0.1,1.1,0.2,1.6,0.3
				C45.7,201,46.7,201.2,47.7,201.5z"/>
		</g>
	</g>
	<g>
		<path d="M1457.1,28.6c-1.4,0-2.9-0.2-4.3-0.6c-1.4-0.5-2.7-1.1-3.9-2c-1.2-0.9-2.1-2-2.9-3.3c-0.7-1.3-1.1-2.8-1.2-4.4
			c0-1.1,0.2-2.2,0.5-3.4c0.4-1.2,0.9-2.3,1.7-3.3c0.7-1,1.6-1.8,2.7-2.5c1.1-0.7,2.3-1,3.6-1c0.9,0,2.1,0.3,3.2,0.8
			c1.2,0.6,2.7,2.2,2.7,2.2c0,0-4.8,1.3-6,4.8c-0.6,1.7-1.1,3.3-1.1,5c0,0.5,0.1,1.1,0.3,1.6c0.2,0.6,0.4,1.1,0.8,1.6
			c0.4,0.5,0.9,0.9,1.5,1.2c0.6,0.3,1.4,0.4,2.4,0.4c1.4,0,2.6-0.8,3.7-2.2c1.1-1.4,2-3.2,2.8-5.5c0.8-2.2,1.4-4.7,1.9-7.4
			c0.5-2.7,0.8-5.4,1-8c0-0.4,0.1-1.2-0.2-1.3c-0.4-0.1-0.8-0.1-1.8-0.1c-1,0-1.9,0.1-2.8,0.3c-0.9,0.2-1.6,0.6-2.2,1.3
			c-0.4-1.1-0.6-2.1-0.6-3c0-1.1,0.2-2,0.8-2.7c0.5-0.6,1.2-1.1,2-1.4c0.8-0.3,1.7-0.4,2.7-0.4c0.7,0,2.8,0.4,2.8,0.4
			s1.3-3.3,1.6-4.1c0.1-0.3-1.3-0.7-2.2-1c-1.6-0.6-3.2-1.4-4.8-2.1c-1.6-0.7-3.2-1.3-4.7-1.8c-1.5-0.5-2.9-0.8-4-0.7
			c-0.9,0-1.5,0.2-1.8,0.6c-0.3,0.4-0.4,0.8-0.4,1.3c0.1,0.5,0.2,1,0.5,1.5c0.3,0.5,0.6,0.9,0.9,1.2c1.2,1.1,2.4,1.9,3.5,2.3
			c1.1,0.5,2.1,0.8,2.9,0.9c0.8,0.1,1.5,0.2,2,0.2c0.5,0,0.8,0.1,0.9,0.3c0.1,0.3,0,0.5-0.4,0.6c-0.4,0.1-0.9,0.1-1.6,0.1
			s-1.5-0.1-2.5-0.3c-0.9-0.2-1.9-0.4-2.8-0.7c-0.7-0.2-1.4-0.5-2.3-0.9c-0.9-0.4-1.7-0.9-2.6-1.6c-0.8-0.7-1.6-1.5-2.2-2.4
			c-0.6-0.9-1-2.1-1.2-3.4c-0.1-1,0-2,0.3-2.8c0.3-0.9,0.8-1.6,1.5-2.3c0.7-0.7,1.4-1.2,2.3-1.5s1.9-0.6,3-0.6
			c2.3,0,4.7,0.3,7.1,1.1c2.4,0.8,4.8,1.7,7.3,2.9c2.4,1.1,4.9,2.2,7.4,3.3c2.5,1.1,5,2,7.5,2.6c1,0.3,1.9,0.3,2.5,0
			c0.6-0.3,1.1-0.6,1.3-0.8c0.1-0.1,0.2,0,0.3,0.2c0.1,0.3,0.1,0.6,0.1,0.9c0,0.3,0,0.8-0.1,1.4c-0.1,0.6-0.2,1.3-0.5,1.9
			c-0.3,0.6-0.7,1.2-1.3,1.7c-0.6,0.5-1.4,0.7-2.4,0.7c-1,0-2-0.1-3.1-0.3c-1.1-0.2-2.3-0.6-2.4-0.5c-0.3,0.5-0.6,1.6-1,2.5
			c-0.4,0.9-1,2.1-1,2.1s6,0.7,6.7,0.8c-0.2,0.5-0.9,0.4-0.8,0.9c0.1,0.8-0.5,1-1.5,0.6c-1.1-0.4-2.8-0.2-3.6-0.1
			c-0.8,0.1-1.7,0.3-2,1.3c-0.6,2.1-1.6,4.8-2.2,6.9c-0.5,2-1.1,4-1.6,5.9c-0.5,1.9-1.1,3.7-1.7,5.4c-0.6,1.7-1.4,3.1-2.4,4.4
			c-1,1.2-2.2,2.3-3.7,3C1461,28.2,1459.2,28.6,1457.1,28.6z"/>
		<path d="M1488.1,18.5c-0.2,0.3-0.5,0.6-0.9,1c-0.5,0.4-1,0.8-1.6,1.2c-0.6,0.4-1.3,0.7-2.1,1c-0.7,0.3-1.5,0.4-2.3,0.4
			c-1.1,0-1.9-0.2-2.5-0.5c-0.6-0.3-1.1-0.7-1.4-1.2c-0.3-0.5-0.5-1-0.6-1.7c-0.1-0.6-0.1-1.3-0.1-1.9c0-1.1,0.2-2.3,0.5-3.7
			c0.3-1.3,0.6-2.7,1-4c0.4-1.4,0.7-2.7,1-4c0.3-1.3,0.7-2.4,0.6-3.4c0-0.5-0.5-1.2-2-1.2c0,0,0.2-0.9,0.2-1c0,0,0.2-0.1,0.7-0.2
			c0.5-0.1,1.1-0.1,1.8-0.1c0.8,0,1.5,0.1,2.2,0.2c0.7,0.2,1.3,0.4,1.9,0.7c0.6,0.3,1,0.8,1.3,1.4c0.3,0.6,0.5,1.3,0.5,2.1
			c0,0.8-0.2,1.8-0.5,2.8c-0.3,1.1-0.7,2.2-1.1,3.4c-0.4,1.2-0.9,2.4-1.3,3.7c-0.4,1.3-0.8,2.5-1,3.6c-0.1,0.1-0.1,0.1-0.1,0.2
			c-0.1,0.1-0.1,0.3-0.1,0.6c0,0.3,0.1,0.6,0.3,0.9c0.2,0.3,0.5,0.4,1.1,0.4c0.7,0,1.3-0.2,1.8-0.5c0.6-0.4,1-0.8,1.5-1.3
			c0.4-0.5,0.8-1.1,1-1.7c0.3-0.6,0.5-1.1,0.7-1.6c0.7-3.1,1.2-5.6,1.7-7.4c0.5-1.8,0.7-3.2,0.7-4c0-0.6-0.1-1-0.3-1.2
			c-0.2-0.2-0.4-0.4-0.6-0.5c-0.2-0.1-0.4-0.1-0.6-0.1c-0.2,0-0.3,0-0.3-0.1c0.2,0,0.4-0.1,0.6-0.2c0.5-0.1,1.1-0.2,1.8-0.2
			c1.5,0,2.9,0.3,4.1,1c1.2,0.7,1.8,1.8,1.8,3.4c0,0.8-0.2,1.6-0.5,2.4c-0.3,0.8-0.7,1.7-1,2.7c-0.4,0.9-0.8,2-1.2,3.1
			c-0.4,1.1-0.8,2.3-1,3.5c0,0.2,0,0.4,0,0.7c0,0.3,0.1,0.5,0.2,0.8c0.1,0.3,0.2,0.5,0.4,0.7c0.2,0.2,0.4,0.3,0.8,0.3
			c0.9,0,1.5-0.3,2-1c0.5-0.7,0.9-1.4,1.2-2.2c0.3-0.8,0.6-1.6,0.8-2.2c0.2-0.7,0.5-1,0.8-1c0.2,0,0.3,0.1,0.4,0.3
			c0.1,0.2,0.1,0.4,0.1,0.5c0,0.3-0.1,0.8-0.2,1.6c-0.2,0.8-0.7,1.9-1.6,3.3c-0.2,0.3-0.4,0.6-0.8,1c-0.4,0.4-0.8,0.8-1.4,1.2
			c-0.5,0.4-1.1,0.7-1.8,1c-0.7,0.3-1.4,0.4-2.1,0.4c-1.6,0-2.7-0.3-3.3-1C1488.7,20.2,1488.3,19.4,1488.1,18.5
			C1488.2,18.5,1488.1,18.5,1488.1,18.5z"/>
		<path d="M1510.8-0.8c0.7-0.1,1.4-0.1,2.2,0c0.8,0.1,1.6,0.3,2.3,0.7c0.7,0.3,1.3,0.7,1.8,1.2c0.5,0.5,0.8,1,0.8,1.6
			c0.1,0.7-0.1,1.3-0.5,1.9c-0.4,0.6-0.8,1.2-1.2,1.7c-0.4,0.6-0.8,1.1-1.2,1.7c-0.4,0.6-0.6,1.2-0.6,1.9c0,0.4,0.2,0.8,0.5,1.1
			c-1.2-0.3-2.1-0.8-2.8-1.6c-0.7-0.8-1-1.6-1-2.5c0-0.7,0.3-1.3,0.8-2c0.5-0.7-2.4,0.2-3.3,0.8c-0.9,0.6-1.6,1.3-2.2,2.1
			c-0.6,0.9-1.1,1.8-1.4,2.9c-0.3,1.1-0.5,2.1-0.5,3.2c0,0.6,0.1,1.2,0.2,1.8c0.1,0.6,0.3,1.1,0.7,1.6c0.3,0.5,0.7,0.9,1.2,1.2
			c0.5,0.3,1.1,0.5,1.9,0.5c1.4,0,2.7-0.3,3.9-1c1.3-0.6,2.4-1.4,3.3-2.2c1-0.8,1.7-1.6,2.3-2.3c0.6-0.7,0.9-1.2,1-1.4
			c0.1-0.2,0.3-0.2,0.5,0s0.3,0.4,0.3,0.7V13c0,0-0.3,0.4-0.9,1.3c-0.6,0.9-1.4,2-2.6,3.1c-1.1,1.1-2.5,2.2-4.3,3.1
			c-1.7,0.9-3.7,1.4-5.9,1.4c-1.8,0-3.3-0.4-4.3-1.2c-1-0.8-1.7-1.6-2.2-2.6c-0.5-1-0.8-1.9-0.8-2.8c-0.1-0.9-0.1-1.4-0.1-1.6
			c0-2.4,0.4-4.5,1.2-6.4c0.8-1.8,1.8-3.4,3-4.6c1.2-1.2,2.5-2.2,3.8-2.8C1508.4-0.5,1509.6-0.8,1510.8-0.8z"/>
		<path d="M1523.3,13.4c-0.6,1-1,1.9-1.2,2.6c-0.3,0.7-0.4,1.7-0.4,2.9c0,0.9,0.2,1.5,0.6,1.9c0.4,0.4,0.6,0.6,0.6,0.7
			c0,0.1-0.2,0.2-0.7,0.2c-0.4,0-0.9-0.1-1.6-0.2c-0.7-0.1-1.3-0.3-1.9-0.6c-0.6-0.3-1.1-0.7-1.6-1.1c-0.4-0.5-0.7-1-0.7-1.8
			c0-0.2,0-0.4,0.1-0.5c0.3-1.6,0.7-3.4,1.2-5.4c0.5-1.9,1-3.8,1.6-5.7c0.5-1.8,1-3.5,1.5-5.1c0.5-1.6,0.8-2.8,1.1-3.7
			c0.3-1.3,0.5-2.5,0.7-3.4c0.2-0.9,0.3-1.8,0.3-2.5c0-1.4-0.3-2.5-0.8-3.2c-0.6-0.7-0.8-1.2-0.8-1.4c0-0.1,0.2-0.3,0.7-0.5
			c0.5-0.2,1.3-0.3,2.6-0.3c2,0,3.6,0.4,4.6,1.3c1,0.9,1.5,2.1,1.5,3.6c0,0.9-0.1,1.9-0.4,3c-0.3,1.1-0.6,2.3-1,3.5
			c-0.4,1.3-0.9,2.5-1.4,3.9c-0.5,1.3-1.6,3.8-1.6,3.8s0.5-1.1,1.1-1.9c0.6-0.7,1.3-1.4,2-2c0.8-0.6,1.6-1.1,2.5-1.5
			c0.9-0.4,1.7-0.6,2.6-0.6c0.9,0,1.7,0.2,2.5,0.5c0.7,0.4,1.3,0.8,1.8,1.4c0.5,0.6,0.9,1.2,1.1,1.9c0.3,0.7,0.4,1.4,0.4,2
			c0,1.2-0.3,2.4-0.8,3.7c-0.5,1.3-1.3,2.5-2.3,3.5c-1,1.1-2.2,2-3.6,2.7c-1.4,0.7-2.9,1.1-4.6,1.1h0.2h-0.1
			c0.3,0.7,0.8,1.4,1.5,2.1c0.7,0.7,1.5,1.4,2.5,2c0.9,0.6,2,1.1,3.2,1.5c1.2,0.4,2.4,0.6,3.8,0.6c1.5,0,3-0.1,4.5-0.4
			c1.5-0.3,3.1-0.8,4.7-1.4v0.2c0,0.1,0,0.1,0,0.2c0,0,0,0.1,0,0.2c0,0.4-0.1,1-0.3,1.8c-0.2,0.8-0.6,1.5-1.3,2.3
			c-0.6,0.8-1.6,1.4-2.8,2c-1.2,0.6-2.8,0.8-4.9,0.8c-1.5,0-3-0.3-4.5-1c-1.5-0.6-2.8-1.5-4.1-2.7c-1.3-1.1-2.4-2.5-3.3-4.1
			c-1-1.6-1.7-3.3-2.3-5.1c-0.4-0.1-0.8-0.2-1.5-0.6C1523.9,14.4,1523.5,14,1523.3,13.4z M1525.6,13.6c-0.1-0.5-0.1-0.8-0.2-1.1
			c-0.1-0.3-0.2-1-0.5-1c-0.2,0-0.3,0.1-0.4,0.3c-0.1,0.2-0.2,0.5-0.2,0.6c0,0.2,0.5,0.8,0.7,0.9
			C1525.2,13.4,1525.4,13.5,1525.6,13.6z M1534.7,6.7c0-0.8-0.2-1.4-0.7-1.8c-0.4-0.4-1-0.5-1.7-0.5c-0.6,0-1.2,0.1-1.8,0.4
			c-0.7,0.3-1.3,0.6-1.9,1c-0.6,0.4-1.2,1-1.6,1.6c-0.5,0.6-0.8,1.3-0.9,2.1c0,0,1.2,1.1,1.6,2.3c0.3,0.9,0.4,1.5,0.8,2.2
			c0.4,0,0.9-0.2,1.6-0.6c0.7-0.3,1.4-0.8,2.1-1.4c0.7-0.6,1.3-1.3,1.8-2.2C1534.4,8.9,1534.7,7.8,1534.7,6.7z"/>
	</g>
	<rect x="1426.7" y="-27.7" fill="none" width="92.8" height="12.7"/>
	<text transform="matrix(1 0 0 1 1426.6548 -17.8794)"><tspan x="0" y="0" font-family="'UniversLTStd-Ex'" font-size="13.6" letter-spacing="33">	</tspan><tspan x="36" y="0" font-family="'UniversLTStd-Ex'" font-size="13.6"> </tspan><tspan x="41" y="0" font-family="'UniversLTStd-BoldEx'" font-size="12">WHAT</tspan></text>
	<rect x="1485.9" y="-11.1" fill="none" width="35.1" height="11.3"/>
	<text transform="matrix(1 0 0 1 1491.5693 -3.8428)" font-family="'UniversLTStd-Ex'" font-size="10">THE</text>
	<rect x="1444.3" y="29.9" fill="none" width="100.6" height="11.6"/>
	<text transform="matrix(1 0 0 1 1444.3384 40.332)" font-family="'UniversLTStd-Ex'" font-size="14.4" letter-spacing="2">SHOULD I</text>
	<rect x="1439.9" y="44.6" fill="none" width="101.3" height="14.3"/>
	<text transform="matrix(1 0 0 1 1442.0654 55.8647)" font-family="'UniversLTStd-BoldExObl'" font-size="15.6" letter-spacing="2">WATCH?</text>
	<g>
		<path d="M1434.6-89.7c-1.4,0-2.9-0.2-4.3-0.6c-1.4-0.5-2.7-1.1-3.9-2c-1.2-0.9-2.1-2-2.9-3.3c-0.7-1.3-1.1-2.8-1.2-4.4
			c0-1.1,0.2-2.2,0.5-3.4c0.4-1.2,0.9-2.3,1.7-3.3c0.7-1,1.6-1.8,2.7-2.5c1.1-0.7,2.3-1,3.6-1c0.9,0,2.1,0.3,3.2,0.8
			c1.2,0.6,2.7,2.2,2.7,2.2c0,0-4.8,1.3-6,4.8c-0.6,1.7-1.1,3.3-1.1,5c0,0.5,0.1,1.1,0.3,1.6c0.2,0.6,0.4,1.1,0.8,1.6
			c0.4,0.5,0.9,0.9,1.5,1.2c0.6,0.3,1.4,0.4,2.4,0.4c1.4,0,2.6-0.8,3.7-2.2c1.1-1.4,2-3.2,2.8-5.5c0.8-2.2,1.4-4.7,1.9-7.4
			c0.5-2.7,0.8-5.4,1-8c0-0.4,0.1-1.2-0.2-1.3c-0.4-0.1-0.8-0.1-1.8-0.1c-1,0-1.9,0.1-2.8,0.3c-0.9,0.2-1.6,0.6-2.2,1.3
			c-0.4-1.1-0.6-2.1-0.6-3c0-1.1,0.2-2,0.8-2.7c0.5-0.6,1.2-1.1,2-1.4c0.8-0.3,1.7-0.4,2.7-0.4c0.7,0,2.8,0.4,2.8,0.4
			s1.3-3.3,1.6-4.1c0.1-0.3-1.3-0.7-2.2-1c-1.6-0.6-3.2-1.4-4.8-2.1c-1.6-0.7-3.2-1.3-4.7-1.8c-1.5-0.5-2.9-0.8-4-0.7
			c-0.9,0-1.5,0.2-1.8,0.6c-0.3,0.4-0.4,0.8-0.4,1.3c0.1,0.5,0.2,1,0.5,1.5c0.3,0.5,0.6,0.9,0.9,1.2c1.2,1.1,2.4,1.9,3.5,2.3
			c1.1,0.5,2.1,0.8,2.9,0.9c0.8,0.1,1.5,0.2,2,0.2c0.5,0,0.8,0.1,0.9,0.3c0.1,0.3,0,0.5-0.4,0.6c-0.4,0.1-0.9,0.1-1.6,0.1
			s-1.5-0.1-2.5-0.3c-0.9-0.2-1.9-0.4-2.8-0.7c-0.7-0.2-1.4-0.5-2.3-0.9c-0.9-0.4-1.7-0.9-2.6-1.6c-0.8-0.7-1.6-1.5-2.2-2.4
			c-0.6-0.9-1-2.1-1.2-3.4c-0.1-1,0-2,0.3-2.8c0.3-0.9,0.8-1.6,1.5-2.3c0.7-0.7,1.4-1.2,2.3-1.5s1.9-0.6,3-0.6
			c2.3,0,4.7,0.3,7.1,1.1c2.4,0.8,4.8,1.7,7.3,2.9c2.4,1.1,4.9,2.2,7.4,3.3c2.5,1.1,5,2,7.5,2.6c1,0.3,1.9,0.3,2.5,0
			c0.6-0.3,1.1-0.6,1.3-0.8c0.1-0.1,0.2,0,0.3,0.2c0.1,0.3,0.1,0.6,0.1,0.9c0,0.3,0,0.8-0.1,1.4c-0.1,0.6-0.2,1.3-0.5,1.9
			c-0.3,0.6-0.7,1.2-1.3,1.7c-0.6,0.5-1.4,0.7-2.4,0.7c-1,0-2-0.1-3.1-0.3c-1.1-0.2-2.3-0.6-2.4-0.5c-0.3,0.5-0.6,1.6-1,2.5
			c-0.4,0.9-1,2.1-1,2.1s6,0.7,6.7,0.8c-0.2,0.5-0.9,0.4-0.8,0.9c0.1,0.8-0.5,1-1.5,0.6c-1.1-0.4-2.8-0.2-3.6-0.1
			c-0.8,0.1-1.7,0.3-2,1.3c-0.6,2.1-1.6,4.8-2.2,6.9c-0.5,2-1.1,4-1.6,5.9c-0.5,1.9-1.1,3.7-1.7,5.4c-0.6,1.7-1.4,3.1-2.4,4.4
			c-1,1.2-2.2,2.3-3.7,3C1438.5-90.1,1436.7-89.7,1434.6-89.7z"/>
		<path d="M1465.6-99.7c-0.2,0.3-0.5,0.6-0.9,1c-0.5,0.4-1,0.8-1.6,1.2c-0.6,0.4-1.3,0.7-2.1,1c-0.7,0.3-1.5,0.4-2.3,0.4
			c-1.1,0-1.9-0.2-2.5-0.5c-0.6-0.3-1.1-0.7-1.4-1.2c-0.3-0.5-0.5-1-0.6-1.7c-0.1-0.6-0.1-1.3-0.1-1.9c0-1.1,0.2-2.3,0.5-3.7
			c0.3-1.3,0.6-2.7,1-4c0.4-1.4,0.7-2.7,1-4c0.3-1.3,0.7-2.4,0.6-3.4c0-0.5-0.5-1.2-2-1.2c0,0,0.2-0.9,0.2-1c0,0,0.2-0.1,0.7-0.2
			c0.5-0.1,1.1-0.1,1.8-0.1c0.8,0,1.5,0.1,2.2,0.2c0.7,0.2,1.3,0.4,1.9,0.7c0.6,0.3,1,0.8,1.3,1.4c0.3,0.6,0.5,1.3,0.5,2.1
			c0,0.8-0.2,1.8-0.5,2.8c-0.3,1.1-0.7,2.2-1.1,3.4c-0.4,1.2-0.9,2.4-1.3,3.7c-0.4,1.3-0.8,2.5-1,3.6c-0.1,0.1-0.1,0.1-0.1,0.2
			c-0.1,0.1-0.1,0.3-0.1,0.6c0,0.3,0.1,0.6,0.3,0.9c0.2,0.3,0.5,0.4,1.1,0.4c0.7,0,1.3-0.2,1.8-0.5c0.6-0.4,1-0.8,1.5-1.3
			c0.4-0.5,0.8-1.1,1-1.7c0.3-0.6,0.5-1.1,0.7-1.6c0.7-3.1,1.2-5.6,1.7-7.4c0.5-1.8,0.7-3.2,0.7-4c0-0.6-0.1-1-0.3-1.2
			c-0.2-0.2-0.4-0.4-0.6-0.5c-0.2-0.1-0.4-0.1-0.6-0.1s-0.3,0-0.3-0.1c0.2,0,0.4-0.1,0.6-0.2c0.5-0.1,1.1-0.2,1.8-0.2
			c1.5,0,2.9,0.3,4.1,1c1.2,0.7,1.8,1.8,1.8,3.4c0,0.8-0.2,1.6-0.5,2.4c-0.3,0.8-0.7,1.7-1,2.7c-0.4,0.9-0.8,2-1.2,3.1
			c-0.4,1.1-0.8,2.3-1,3.5c0,0.2,0,0.4,0,0.7c0,0.3,0.1,0.5,0.2,0.8c0.1,0.3,0.2,0.5,0.4,0.7c0.2,0.2,0.4,0.3,0.8,0.3
			c0.9,0,1.5-0.3,2-1c0.5-0.7,0.9-1.4,1.2-2.2c0.3-0.8,0.6-1.6,0.8-2.2c0.2-0.7,0.5-1,0.8-1c0.2,0,0.3,0.1,0.4,0.3
			c0.1,0.2,0.1,0.4,0.1,0.5c0,0.3-0.1,0.8-0.2,1.6c-0.2,0.8-0.7,1.9-1.6,3.3c-0.2,0.3-0.4,0.6-0.8,1c-0.4,0.4-0.8,0.8-1.4,1.2
			c-0.5,0.4-1.1,0.7-1.8,1c-0.7,0.3-1.4,0.4-2.1,0.4c-1.6,0-2.7-0.3-3.3-1C1466.2-98.1,1465.8-98.9,1465.6-99.7
			C1465.7-99.8,1465.7-99.7,1465.6-99.7z"/>
		<path d="M1488.3-119.1c0.7-0.1,1.4-0.1,2.2,0c0.8,0.1,1.6,0.3,2.3,0.7c0.7,0.3,1.3,0.7,1.8,1.2c0.5,0.5,0.8,1,0.8,1.6
			c0.1,0.7-0.1,1.3-0.5,1.9c-0.4,0.6-0.8,1.2-1.2,1.7c-0.4,0.6-0.8,1.1-1.2,1.7c-0.4,0.6-0.6,1.2-0.6,1.9c0,0.4,0.2,0.8,0.5,1.1
			c-1.2-0.3-2.1-0.8-2.8-1.6c-0.7-0.8-1-1.6-1-2.5c0-0.7,0.3-1.3,0.8-2c0.5-0.7-2.4,0.2-3.3,0.8c-0.9,0.6-1.6,1.3-2.2,2.1
			c-0.6,0.9-1.1,1.8-1.4,2.9c-0.3,1.1-0.5,2.1-0.5,3.2c0,0.6,0.1,1.2,0.2,1.8c0.1,0.6,0.3,1.1,0.7,1.6c0.3,0.5,0.7,0.9,1.2,1.2
			c0.5,0.3,1.1,0.5,1.9,0.5c1.4,0,2.7-0.3,3.9-1c1.3-0.6,2.4-1.4,3.3-2.2c1-0.8,1.7-1.6,2.3-2.3c0.6-0.7,0.9-1.2,1-1.4
			c0.1-0.2,0.3-0.2,0.5,0c0.2,0.2,0.3,0.4,0.3,0.7v0.2c0,0-0.3,0.4-0.9,1.3c-0.6,0.9-1.4,2-2.6,3.1c-1.1,1.1-2.5,2.2-4.3,3.1
			c-1.7,0.9-3.7,1.4-5.9,1.4c-1.8,0-3.3-0.4-4.3-1.2c-1-0.8-1.7-1.6-2.2-2.6c-0.5-1-0.8-1.9-0.8-2.8c-0.1-0.9-0.1-1.4-0.1-1.6
			c0-2.4,0.4-4.5,1.2-6.4c0.8-1.8,1.8-3.4,3-4.6c1.2-1.2,2.5-2.2,3.8-2.8C1485.9-118.8,1487.2-119.1,1488.3-119.1z"/>
		<path d="M1500.8-104.9c-0.6,1-1,1.9-1.2,2.6c-0.3,0.7-0.4,1.7-0.4,2.9c0,0.9,0.2,1.5,0.6,1.9c0.4,0.4,0.6,0.6,0.6,0.7
			c0,0.1-0.2,0.2-0.7,0.2c-0.4,0-0.9-0.1-1.6-0.2c-0.7-0.1-1.3-0.3-1.9-0.6c-0.6-0.3-1.1-0.7-1.6-1.1s-0.7-1-0.7-1.8
			c0-0.2,0-0.4,0.1-0.5c0.3-1.6,0.7-3.4,1.2-5.4c0.5-1.9,1-3.8,1.6-5.7c0.5-1.8,1-3.5,1.5-5.1c0.5-1.6,0.8-2.8,1.1-3.7
			c0.3-1.3,0.5-2.5,0.7-3.4c0.2-0.9,0.3-1.8,0.3-2.5c0-1.4-0.3-2.5-0.8-3.2c-0.6-0.7-0.8-1.2-0.8-1.4c0-0.1,0.2-0.3,0.7-0.5
			c0.5-0.2,1.3-0.3,2.6-0.3c2,0,3.6,0.4,4.6,1.3c1,0.9,1.5,2.1,1.5,3.6c0,0.9-0.1,1.9-0.4,3c-0.3,1.1-0.6,2.3-1,3.5
			c-0.4,1.3-0.9,2.5-1.4,3.9c-0.5,1.3-1.6,3.8-1.6,3.8s0.5-1.1,1.1-1.9c0.6-0.7,1.3-1.4,2-2c0.8-0.6,1.6-1.1,2.5-1.5
			c0.9-0.4,1.7-0.6,2.6-0.6c0.9,0,1.7,0.2,2.5,0.5c0.7,0.4,1.3,0.8,1.8,1.4c0.5,0.6,0.9,1.2,1.1,1.9c0.3,0.7,0.4,1.4,0.4,2
			c0,1.2-0.3,2.4-0.8,3.7c-0.5,1.3-1.3,2.5-2.3,3.5c-1,1.1-2.2,2-3.6,2.7c-1.4,0.7-2.9,1.1-4.6,1.1h0.2h-0.1
			c0.3,0.7,0.8,1.4,1.5,2.1c0.7,0.7,1.5,1.4,2.5,2c0.9,0.6,2,1.1,3.2,1.5c1.2,0.4,2.4,0.6,3.8,0.6c1.5,0,3-0.1,4.5-0.4
			c1.5-0.3,3.1-0.8,4.7-1.4v0.2c0,0.1,0,0.1,0,0.2c0,0,0,0.1,0,0.2c0,0.4-0.1,1-0.3,1.8c-0.2,0.8-0.6,1.5-1.3,2.3
			c-0.6,0.8-1.6,1.4-2.8,2c-1.2,0.6-2.8,0.8-4.9,0.8c-1.5,0-3-0.3-4.5-1c-1.5-0.6-2.8-1.5-4.1-2.7c-1.3-1.1-2.4-2.5-3.3-4.1
			c-1-1.6-1.7-3.3-2.3-5.1c-0.4-0.1-0.8-0.2-1.5-0.6C1501.4-103.9,1501-104.3,1500.8-104.9z M1503.1-104.7c-0.1-0.5-0.1-0.8-0.2-1.1
			c-0.1-0.3-0.2-1-0.5-1c-0.2,0-0.3,0.1-0.4,0.3c-0.1,0.2-0.2,0.5-0.2,0.6c0,0.2,0.5,0.8,0.7,0.9
			C1502.7-104.9,1502.9-104.8,1503.1-104.7z M1512.2-111.6c0-0.8-0.2-1.4-0.7-1.8c-0.4-0.4-1-0.5-1.7-0.5c-0.6,0-1.2,0.1-1.8,0.4
			c-0.7,0.3-1.3,0.6-1.9,1c-0.6,0.4-1.2,1-1.6,1.6c-0.5,0.6-0.8,1.3-0.9,2.1c0,0,1.2,1.1,1.6,2.3c0.3,0.9,0.4,1.5,0.8,2.2
			c0.4,0,0.9-0.2,1.6-0.6c0.7-0.3,1.4-0.8,2.1-1.4c0.7-0.6,1.3-1.3,1.8-2.2C1511.9-109.4,1512.2-110.4,1512.2-111.6z"/>
	</g>
	<rect x="1425.3" y="-147.1" fill="none" width="92.9" height="12.7"/>
	<text transform="matrix(1 0 0 1 1425.3433 -137.2373)"><tspan x="0" y="0" font-family="'UniversLTStd-Ex'" font-size="13.6" letter-spacing="33">	</tspan><tspan x="36" y="0" font-family="'UniversLTStd-Ex'" font-size="13.6"> </tspan><tspan x="41" y="0" font-family="'UniversLTStd-BoldEx'" font-size="13">WHAT</tspan></text>
	<rect x="1463.4" y="-131.8" fill="none" width="35.1" height="11.3"/>
	<text transform="matrix(1 0 0 1 1466.7227 -123.1733)" font-family="'UniversLTStd-Ex'" font-size="12">THE</text>
	<rect x="1421.9" y="-88.3" fill="none" width="100.6" height="11.6"/>
	<text transform="matrix(1 0 0 1 1421.8599 -77.9429)" font-family="'UniversLTStd-Ex'" font-size="14.4" letter-spacing="2">SHOULD I</text>
	<rect x="1417.4" y="-73.7" fill="none" width="101.3" height="14.3"/>
	
		<text transform="matrix(1 0 0 1 1419.5869 -62.4102)" font-family="'UniversLTStd-BoldExObl'" font-size="15.6" letter-spacing="2">WATCH?</text>
	<g>
		<path d="M155.2,171.1c-1.9,0-3.7-0.2-5.6-0.8c-1.9-0.6-3.6-1.5-5.1-2.7c-1.5-1.2-2.8-2.6-3.7-4.3c-1-1.7-1.5-3.6-1.5-5.7
			c0-1.4,0.2-2.9,0.7-4.5c0.5-1.6,1.2-3,2.2-4.3c0.9-1.3,2.1-2.4,3.5-3.2c1.4-0.9,2.9-1.3,4.7-1.3c1.2,0,2.7,0.4,4.1,1.1
			c1.5,0.7,3.6,2.9,3.6,2.9c0,0-6.3,1.7-7.8,6.2c-0.8,2.2-1.5,4.3-1.4,6.5c0,0.7,0.1,1.4,0.3,2.1c0.2,0.8,0.6,1.5,1,2.1
			c0.5,0.6,1.1,1.1,1.9,1.5c0.8,0.4,1.8,0.6,3.1,0.5c1.8,0,3.4-1,4.8-2.8c1.4-1.9,2.6-4.2,3.6-7.1c1-2.9,1.8-6.1,2.5-9.7
			c0.6-3.6,1.1-7,1.4-10.4c0.1-0.5,0.2-1.5-0.2-1.6c-0.5-0.2-1.1-0.1-2.3-0.2c-1.3,0-2.5,0.1-3.6,0.4c-1.1,0.3-2.1,0.8-2.9,1.7
			c-0.5-1.4-0.8-2.7-0.8-3.9c0-1.5,0.3-2.6,1-3.5c0.7-0.8,1.6-1.5,2.6-1.9c1.1-0.4,2.2-0.5,3.5-0.6c0.9,0,3.7,0.5,3.7,0.5
			s1.7-4.3,2-5.3c0.1-0.4-1.7-0.9-2.8-1.3c-2.1-0.8-4.1-1.8-6.2-2.7c-2.1-0.9-4.1-1.7-6.1-2.4c-2-0.7-3.7-1-5.3-1
			c-1.1,0-1.9,0.3-2.3,0.8c-0.4,0.5-0.5,1.1-0.5,1.7c0.1,0.6,0.3,1.3,0.7,2c0.4,0.7,0.8,1.2,1.2,1.6c1.6,1.4,3.2,2.5,4.6,3.1
			c1.4,0.6,2.7,1,3.8,1.2c1.1,0.2,2,0.3,2.7,0.3c0.7,0,1.1,0.2,1.2,0.4c0.1,0.4,0,0.7-0.5,0.8c-0.5,0.1-1.2,0.2-2.1,0.1
			c-0.9,0-2-0.2-3.2-0.4c-1.2-0.2-2.4-0.6-3.7-0.9c-0.9-0.2-1.9-0.6-3-1.1c-1.1-0.5-2.3-1.2-3.3-2.1c-1.1-0.9-2-1.9-2.9-3.1
			c-0.8-1.2-1.4-2.7-1.6-4.4c-0.2-1.3,0-2.6,0.4-3.7c0.4-1.1,1.1-2.1,1.9-3c0.8-0.9,1.9-1.5,3.1-2c1.2-0.5,2.5-0.8,3.9-0.8
			c3.1-0.1,6.2,0.4,9.3,1.5c3.1,1,6.3,2.3,9.5,3.7c3.2,1.4,6.4,2.9,9.7,4.3c3.3,1.4,6.5,2.6,9.8,3.4c1.3,0.4,2.4,0.5,3.3,0
			c0.8-0.4,1.4-0.8,1.7-1c0.1-0.1,0.2,0,0.4,0.3c0.1,0.3,0.2,0.7,0.2,1.2c0,0.4,0,1-0.1,1.9c-0.1,0.8-0.3,1.7-0.7,2.5
			c-0.4,0.8-1,1.6-1.7,2.2c-0.8,0.6-1.8,0.9-3.1,1c-1.3,0-2.6-0.1-4-0.4c-1.4-0.3-3-0.8-3.1-0.6c-0.4,0.6-0.8,2.1-1.3,3.2
			c-0.5,1.1-1.2,2.7-1.2,2.7s7.8,0.9,8.7,1.1c-0.3,0.6-1.1,0.5-1,1.1c0.2,1-0.7,1.2-2,0.8c-1.4-0.6-3.7-0.3-4.7-0.1
			c-1,0.2-2.2,0.4-2.6,1.7c-0.8,2.7-2.1,6.3-2.8,9c-0.7,2.7-1.4,5.2-2.1,7.7c-0.7,2.5-1.4,4.8-2.2,7c-0.8,2.2-1.8,4.1-3.1,5.7
			c-1.3,1.6-2.9,2.9-4.8,3.9C160.3,170.5,158,171,155.2,171.1z"/>
		<path d="M195.7,157.9c-0.2,0.3-0.6,0.8-1.2,1.3c-0.6,0.5-1.3,1.1-2.2,1.6c-0.8,0.5-1.7,0.9-2.7,1.3c-1,0.3-2,0.5-3,0.5
			c-1.4,0-2.5-0.2-3.3-0.7c-0.8-0.4-1.4-1-1.8-1.6c-0.4-0.6-0.7-1.4-0.8-2.2c-0.1-0.8-0.2-1.7-0.2-2.5c0-1.5,0.2-3.1,0.6-4.8
			c0.4-1.7,0.8-3.5,1.3-5.3c0.5-1.8,0.9-3.5,1.3-5.3c0.4-1.7,0.9-3.1,0.8-4.5c0-0.7-0.6-1.6-2.6-1.6c0,0,0.2-1.2,0.2-1.3
			c0-0.1,0.3-0.1,0.9-0.2c0.6-0.1,1.4-0.2,2.4-0.2c1,0,2,0.1,2.9,0.3c0.9,0.2,1.7,0.5,2.5,1c0.7,0.4,1.3,1,1.8,1.8
			c0.4,0.8,0.7,1.7,0.7,2.8c0,1.1-0.2,2.3-0.6,3.7c-0.4,1.4-0.9,2.9-1.5,4.5c-0.6,1.6-1.1,3.2-1.7,4.8c-0.6,1.6-1,3.2-1.4,4.8
			c-0.1,0.1-0.1,0.2-0.1,0.3c-0.1,0.1-0.1,0.4-0.1,0.8c0,0.4,0.1,0.8,0.3,1.1c0.2,0.4,0.7,0.6,1.5,0.6c0.9,0,1.7-0.2,2.4-0.7
			c0.7-0.5,1.4-1,1.9-1.8c0.5-0.7,1-1.4,1.4-2.2c0.4-0.8,0.6-1.5,0.8-2.1c0.9-4.1,1.6-7.3,2.3-9.7c0.6-2.4,1-4.1,1-5.3
			c0-0.7-0.1-1.2-0.4-1.6c-0.2-0.3-0.5-0.5-0.8-0.6c-0.3-0.1-0.5-0.1-0.8-0.1c-0.2,0-0.3,0-0.3-0.2c0.2-0.1,0.5-0.1,0.8-0.2
			c0.7-0.1,1.5-0.2,2.4-0.2c2,0,3.8,0.4,5.4,1.3c1.6,0.9,2.4,2.4,2.4,4.5c0,1-0.2,2.1-0.6,3.2c-0.4,1.1-0.9,2.3-1.4,3.5
			c-0.5,1.2-1,2.6-1.6,4c-0.6,1.4-1,3-1.2,4.6c0,0.2,0,0.5,0.1,0.9c0,0.4,0.1,0.7,0.2,1.1c0.1,0.3,0.3,0.6,0.5,0.9
			c0.2,0.2,0.6,0.3,1,0.3c1.1,0,2-0.4,2.7-1.3c0.6-0.9,1.2-1.8,1.6-2.9c0.4-1.1,0.7-2,1-2.9c0.3-0.9,0.6-1.3,1.1-1.3
			c0.3,0,0.4,0.1,0.5,0.4c0.1,0.3,0.1,0.5,0.1,0.6c0,0.3-0.1,1-0.3,2.1c-0.2,1.1-0.9,2.5-2.1,4.3c-0.2,0.3-0.5,0.8-1.1,1.3
			c-0.5,0.5-1.1,1.1-1.8,1.6c-0.7,0.5-1.5,0.9-2.4,1.3c-0.9,0.3-1.8,0.5-2.8,0.5c-2.1,0-3.5-0.4-4.4-1.3c-0.8-0.8-1.4-1.9-1.6-3.1
			C195.8,157.9,195.8,157.9,195.7,157.9z"/>
		<path d="M225.4,132.6c0.9-0.1,1.8-0.1,2.9,0c1.1,0.2,2.1,0.4,3,0.9c0.9,0.4,1.7,0.9,2.3,1.6c0.6,0.6,1,1.4,1,2.2
			c0.1,0.9-0.1,1.7-0.6,2.5c-0.5,0.8-1,1.5-1.6,2.3c-0.6,0.7-1.1,1.5-1.6,2.3c-0.5,0.8-0.8,1.6-0.8,2.5c0,0.5,0.2,1,0.6,1.4
			c-1.5-0.3-2.8-1-3.7-2.1c-0.9-1-1.3-2.1-1.3-3.3c0.1-0.9,0.4-1.8,1.1-2.7c0.7-0.9-3.2,0.3-4.3,1.1c-1.1,0.7-2.1,1.7-2.9,2.8
			c-0.8,1.1-1.4,2.4-1.9,3.8c-0.4,1.4-0.6,2.8-0.6,4.2c0,0.8,0.1,1.6,0.3,2.4c0.2,0.8,0.4,1.5,0.8,2.2c0.4,0.7,0.9,1.2,1.6,1.6
			c0.7,0.4,1.5,0.6,2.5,0.6c1.8,0,3.5-0.4,5.2-1.3c1.6-0.8,3.1-1.8,4.4-2.9c1.3-1.1,2.3-2.1,3.1-3.1c0.8-1,1.2-1.6,1.4-1.9
			c0.1-0.3,0.4-0.3,0.7,0c0.3,0.2,0.5,0.5,0.5,1v0.2c0-0.1-0.4,0.5-1.2,1.8c-0.8,1.2-1.9,2.6-3.4,4.1c-1.5,1.5-3.3,2.8-5.6,4.1
			c-2.2,1.2-4.8,1.9-7.7,1.9c-2.4,0-4.3-0.5-5.6-1.5c-1.3-1-2.3-2.1-2.9-3.4c-0.6-1.3-1-2.5-1.1-3.6c-0.1-1.1-0.2-1.8-0.2-2.1
			c0-3.1,0.5-5.9,1.6-8.3c1.1-2.4,2.4-4.4,4-6c1.6-1.6,3.2-2.8,5-3.7C222.3,133,223.9,132.6,225.4,132.6z"/>
		<path d="M241.8,151.2c-0.7,1.3-1.3,2.5-1.6,3.5c-0.3,1-0.5,2.3-0.5,3.9c0,1.1,0.3,2,0.8,2.5c0.5,0.5,0.8,0.8,0.8,1
			c0,0.1-0.3,0.2-0.9,0.2c-0.5,0-1.2-0.1-2.1-0.3c-0.9-0.2-1.7-0.4-2.5-0.8c-0.8-0.4-1.5-0.9-2.1-1.5c-0.6-0.6-0.9-1.4-0.9-2.3
			c0-0.3,0-0.5,0.1-0.7c0.4-2.1,0.9-4.5,1.6-7c0.7-2.5,1.4-5,2.1-7.4c0.7-2.4,1.3-4.6,2-6.7c0.6-2,1.1-3.7,1.4-4.9
			c0.4-1.7,0.7-3.2,1-4.5c0.2-1.2,0.3-2.3,0.3-3.3c0-1.9-0.4-3.3-1.1-4.2c-0.7-0.9-1.1-1.5-1.1-1.8c0-0.1,0.3-0.3,0.9-0.6
			c0.6-0.3,1.7-0.4,3.4-0.4c2.7,0,4.7,0.6,6,1.8c1.3,1.2,2,2.7,2,4.7c0,1.2-0.2,2.5-0.5,4c-0.3,1.4-0.8,3-1.3,4.6
			c-0.5,1.6-1.2,3.3-1.9,5.1c-0.7,1.7-2.1,5-2.1,5s0.7-1.5,1.5-2.5c0.8-1,1.7-1.9,2.7-2.7c1-0.8,2.1-1.5,3.3-2
			c1.2-0.5,2.3-0.8,3.4-0.8c1.2,0,2.3,0.2,3.2,0.7c0.9,0.5,1.7,1.1,2.4,1.8c0.7,0.7,1.2,1.6,1.5,2.5c0.3,0.9,0.5,1.8,0.5,2.7
			c0,1.5-0.4,3.1-1.1,4.8c-0.7,1.7-1.7,3.2-3,4.6c-1.3,1.4-2.8,2.6-4.7,3.5c-1.8,0.9-3.9,1.4-6.1,1.4h0.2h-0.1
			c0.4,0.9,1.1,1.9,2,2.8c0.9,0.9,2,1.8,3.2,2.6c1.2,0.8,2.6,1.4,4.2,2c1.5,0.5,3.2,0.7,4.9,0.7c1.9,0,3.9-0.2,5.9-0.5
			c2-0.4,4-1,6.1-1.9v0.2c0,0.1,0,0.1,0,0.2c0,0.1,0.1,0.2,0.1,0.3c0,0.5-0.1,1.3-0.4,2.3c-0.3,1-0.8,2-1.7,3c-0.8,1-2,1.9-3.6,2.6
			c-1.6,0.7-3.7,1.1-6.4,1.1c-2,0-4-0.4-5.9-1.3c-1.9-0.8-3.7-2-5.3-3.5c-1.6-1.5-3.1-3.3-4.4-5.3c-1.3-2-2.3-4.3-3-6.7
			c-0.5-0.1-1.1-0.3-1.9-0.8C242.5,152.5,242,151.9,241.8,151.2z M244.8,151.4c-0.1-0.6-0.2-1.1-0.2-1.4c-0.1-0.3-0.2-1.3-0.7-1.3
			c-0.3,0-0.5,0.1-0.6,0.3c-0.1,0.2-0.2,0.6-0.2,0.7c0.1,0.3,0.7,1,0.9,1.2C244.2,151.2,244.4,151.3,244.8,151.4z M256.6,142.4
			c0-1.1-0.3-1.8-0.9-2.3c-0.6-0.5-1.3-0.7-2.3-0.7c-0.7,0-1.5,0.2-2.4,0.5c-0.9,0.3-1.7,0.8-2.5,1.4c-0.8,0.6-1.5,1.3-2.1,2.1
			c-0.6,0.8-1,1.7-1.2,2.7c0,0,1.6,1.4,2.1,2.9c0.4,1.2,0.5,2,1.1,2.9c0.5-0.1,1.2-0.3,2.1-0.8c0.9-0.4,1.8-1.1,2.7-1.9
			c0.9-0.8,1.7-1.8,2.4-2.9C256.2,145.2,256.6,143.9,256.6,142.4z"/>
	</g>
	<g>
		<path d="M206.4,96.6h3.5l3.3,9.6h0l3.2-9.6h2.8l-4.3,12.3h-3.4l-3.4-9.8h0l-3.3,9.8h-3.3L197,96.6h3l3.2,9.6h0L206.4,96.6z"/>
		<path d="M220.8,96.6h2.8v5h6.7v-5h2.8v12.3h-2.8v-5.3h-6.7v5.3h-2.8V96.6z"/>
		<path d="M240.9,96.6h3.5l6.3,12.3h-3.3l-1.4-2.8h-7.1l-1.3,2.8h-3L240.9,96.6z M245,104.1l-2.5-5.3l-2.5,5.3H245z"/>
		<path d="M263.2,96.6v2h-4.7v10.3h-2.8V98.6h-4.7v-2H263.2z"/>
	</g>
	<g>
		<path d="M202.2,117.3h-4.8v-1.4h11.2v1.4h-4.8v9.9h-1.6V117.3z"/>
		<path d="M219.4,122h-7.3v5.3h-1.6v-11.3h1.6v4.8h7.3v-4.8h1.6v11.3h-1.6V122z"/>
		<path d="M224.4,115.9h8.5v1.3H226v3.6h6.4v1.3H226v3.9h7v1.3h-8.7V115.9z"/>
	</g>
	<g>
		<path d="M150.1,176.4c-0.2-1.9-2.1-2.4-4.3-2.4c-1.9,0-3.6,1-3.6,2.5c0,0.7,0.5,1.5,2.1,1.8l5.1,0.9c2.2,0.4,3.2,1.6,3.2,3.3
			c0,2.7-2.4,4.3-6.5,4.3c-3.9,0-6.1-1.4-6.3-4.4h2.1c0.1,1.8,1.8,2.9,4.4,2.9c2.8,0,4.4-1.1,4.4-2.6c0-3.8-10.4-0.4-10.4-6
			c0-2.6,2.2-4.1,5.9-4.1c2.8,0,5.8,0.8,6,4H150.1z"/>
		<path d="M169.2,180.1h-8.7v6.3h-2v-13.6h2v5.7h8.7v-5.7h2v13.6h-2V180.1z"/>
		<path d="M184.9,172.4c5.7,0,7.6,3.9,7.6,7.2c0,3.2-1.9,7.2-7.6,7.2c-5.7,0-7.6-3.9-7.6-7.2C177.2,176.3,179.2,172.4,184.9,172.4z
			 M184.9,185.2c3.3,0,5.6-2.3,5.6-5.6c0-3.4-2.3-5.6-5.6-5.6c-3.3,0-5.6,2.3-5.6,5.6C179.3,182.9,181.6,185.2,184.9,185.2z"/>
		<path d="M209.3,172.8h2v8.1c0,3.9-2.6,5.8-6.3,5.8c-3.7,0-6.3-2-6.3-5.8v-8.1h2v8.2c0,2.6,1.6,4.2,4.4,4.2s4.4-1.6,4.4-4.2V172.8z
			"/>
		<path d="M218.1,172.8h2v12h7.8v1.5h-9.8V172.8z"/>
		<path d="M232.9,172.8h5.3c6,0,8.1,2.5,8.1,7c0,4.2-2.5,6.6-7.8,6.6h-5.6V172.8z M234.9,184.8h3.7c4.5,0,5.7-2.6,5.7-5.3
			c0-3.5-1.6-5.3-6.1-5.3h-3.2V184.8z"/>
		<path d="M261.7,172.8h2v13.6h-2V172.8z"/>
	</g>
	<g>
		<path d="M150.3,192h4.2l1.5,11.5h0l6.2-11.5h3.3l-8.3,14.7h-4.1l-1.6-11.7h0l-6.4,11.7h-4L139,192h3.5l1.5,11.5h0L150.3,192z"/>
		<path d="M176.6,192h4.2l4.4,14.7h-3.9l-1-3.3h-8.5l-2.2,3.3H166L176.6,192z M179.6,201l-1.7-6.4l-4.4,6.4H179.6z"/>
		<path d="M206.3,192l-0.5,2.4h-5.6l-2.6,12.3h-3.3l2.6-12.3h-5.6l0.5-2.4H206.3z"/>
		<path d="M222.1,196.6c0.3-1.8-1.5-2.6-3.3-2.6c-2.1,0-5.1,1.2-6,5.3c-0.9,4.1,1.7,5.3,3.7,5.3c2.7,0,4.2-1.4,4.6-2.7h3.4
			c-1.1,3.9-5,5.1-8.8,5.1c-4.9,0-7.5-2.6-6.4-7.7c1-5,4.8-7.7,9.9-7.7c3.1,0,6.9,1.1,6.3,5.1H222.1z"/>
		<path d="M232.5,192h3.3l-1.3,6h8l1.3-6h3.3l-3.1,14.7h-3.3l1.3-6.3h-8l-1.3,6.3h-3.3L232.5,192z"/>
		<path d="M253.8,203.8h2.9l-0.6,2.9h-2.9L253.8,203.8z M254.5,201.3c0.3-1.4,0.7-2,1.8-2.6l2.7-1.5c0.8-0.4,1.2-0.9,1.3-1.5
			c0.3-1.3-0.8-1.8-2.7-1.8c-1.6,0-2.8,0.2-3.6,0.4l0.5-2.3c1-0.2,2.6-0.4,3.7-0.4c3.5,0,6.1,0.7,5.4,3.9c-0.3,1.2-1,2.3-3.1,3.4
			l-2,1c-1,0.5-1.4,1.1-1.7,2l-0.1,0.6h-2.5L254.5,201.3z"/>
	</g>
	<g>
		<path d="M85.1,171.8c0,0,0,0.2,0,0.7c0,0.2-0.1,0.5-0.2,0.8c-0.1,0.3-0.2,0.7-0.4,1.1c-0.3,0.8-0.9,1.7-1.7,2.6
			c-0.8,0.9-2,1.8-3.3,2.4c-1.4,0.6-3,1-4.7,1.1c-0.4,0-0.8,0-1.3,0c-0.4-0.1-0.8-0.1-1.3-0.2c-0.9-0.2-1.8-0.4-2.7-0.7
			c-1.7-0.6-3.4-1.5-4.9-2.6c-0.8-0.6-1.5-1.3-2-2.1c-0.6-0.8-1-1.8-1.1-2.9l0-0.8c0-0.3,0.1-0.6,0.1-0.9c0.1-0.6,0.3-1.1,0.5-1.6
			c0.5-1,1.2-1.8,2-2.5c1.6-1.3,3.5-2.2,5.3-2.7c1.8-0.5,3.8-0.6,5.4-0.5c1.8,0.2,3.4,0.6,4.8,1.3c1.4,0.7,2.5,1.6,3.3,2.5
			c0.8,0.9,1.4,1.8,1.7,2.6c0.2,0.4,0.3,0.8,0.4,1.1c0.1,0.3,0.1,0.6,0.1,0.8C85,171.5,85.1,171.8,85.1,171.8L85.1,171.8z
			 M84.7,171.8c0,0,0-0.2-0.1-0.6c0-0.2-0.1-0.5-0.2-0.7c-0.1-0.3-0.2-0.6-0.5-0.9c-0.4-0.6-1.1-1.3-2.1-1.8
			c-0.9-0.5-2.1-0.9-3.3-1.1c-1.2-0.2-2.6-0.5-4-0.5c-1.5,0-3,0.1-4.6,0.4c-1.5,0.3-3.1,0.8-4.4,1.7c-1.3,0.9-2.4,2-2.6,3.6
			c-0.2,1.6,0.7,3.2,2.1,4.3c1.4,1.1,3.1,1.6,4.7,1.8c0.8,0.1,1.7,0.1,2.4,0.1c0.4,0,0.8-0.1,1.2-0.1c0.4,0,0.7-0.1,1.1-0.1
			c1.5-0.2,2.8-0.4,4.1-0.7c1.2-0.3,2.4-0.7,3.3-1.2c0.9-0.5,1.7-1.2,2.1-1.8c0.2-0.3,0.4-0.6,0.5-0.9c0.1-0.3,0.2-0.5,0.2-0.7
			C84.7,172,84.7,171.8,84.7,171.8L84.7,171.8z"/>
	</g>
	<path fill-rule="evenodd" clip-rule="evenodd" fill="#222B3A" d="M54.4,198c-0.6-4.7,0.6-12.7-5.8-13.4c-0.7-0.1-1.4,0.2-2,0.7
		c-1.6,0-3.1,1-3.1,2.9c0,0.7,0,1.4,0.1,2.1c0,0.1,0,0.3,0,0.4c0,0.4,0.1,0.7,0.2,1c0.2,1.8,0.5,3.7,0.9,5.4c0.5,2,1.5,4.3,3.7,4.8
		c1.3,0.3,2.3-0.2,3-1C52.9,200.9,54.6,199.6,54.4,198z"/>
	<g>
		<path d="M45.3,200.3c-0.8-1-1.1-2.3-1.3-3.4c-0.2-1.2-0.3-2.4-0.4-3.6c-0.1-2.4-0.1-4.9,0-7.3c0.2-4.8,0.5-9.7,0.8-14.5
			c0.4-4.8,0.8-9.7,1.3-14.5c0.1-1.2,0.2-2.4,0.4-3.6c0.2-1.2,0.3-2.4,0.5-3.6c0.4-2.4,0.8-4.8,1.4-7.2c1.1-4.8,2.5-9.5,4.3-14.1
			c0.5-1.1,0.9-2.3,1.5-3.4c0.5-1.1,1.1-2.2,1.7-3.3c0.6-1.1,1.2-2.2,1.9-3.2l1-1.6c0.4-0.5,0.8-1,1.1-1.5l1.2-1.5l1.3-1.4
			c0.4-0.4,0.8-0.9,1.3-1.3L65,110l0.7-0.6l0.8-0.5l1.6-1c0.2-0.1,0.2-0.2,0.4-0.3l0.4-0.2l0.8-0.4l1.6-0.8c1.2-0.4,2.3-1,3.5-1.3
			l1.8-0.5l0.9-0.3l0.9-0.2c1.2-0.3,2.4-0.6,3.6-0.7l1.8-0.3c0.6-0.1,1.2-0.1,1.8-0.2c4.9-0.4,9.8-0.1,14.6,1c1.2,0.3,2.4,0.7,3.5,1
			c1.2,0.4,2.3,0.8,3.4,1.3c2.2,1.1,4.4,2.2,6.4,3.8l1.5,1.2l1.3,1.3l0.7,0.7c0.1,0.1,0.2,0.2,0.4,0.4l0.3,0.4
			c0.4,0.5,0.8,0.9,1.1,1.5c1.4,2.2,2.4,4.4,3.2,6.8c0.8,2.3,1.4,4.7,1.9,7.1c0.5,2.4,0.9,4.8,1.2,7.3c0.6,4.9,0.9,9.8,1,14.6
			c0.1,4.9,0,9.8-0.3,14.6c-0.2,4.9-0.6,9.7-1.1,14.6c-0.5,4.8-1.2,9.7-2.1,14.5l0-0.1c-0.3,1.9-0.7,3.9-1.7,5.6
			c-1,1.8-2.4,3.3-4,4.5c-1.6,1.1-3.4,1.9-5.3,2.4c-0.9,0.3-1.8,0.4-2.8,0.5c-0.5,0.1-0.9,0.1-1.4,0.1l-1.3,0c-3.4,0-6.9,0.1-10.3,0
			c-3.4-0.1-6.9-0.2-10.3-0.4c-3.4-0.2-6.9-0.4-10.3-0.7c-1.7-0.1-3.4-0.3-5.1-0.5c-1.7-0.2-3.4-0.3-5.1-0.5
			c-1.7-0.2-3.4-0.4-5.1-0.7c-1.7-0.3-3.4-0.5-5.1-0.9c-1.7-0.3-3.4-0.8-5-1.3C48.3,202.2,46.6,201.6,45.3,200.3L45.3,200.3z
			 M45.6,200c1.2,1.2,2.8,1.8,4.4,2.3c1.6,0.5,3.3,0.9,5,1.1c1.7,0.3,3.4,0.5,5.1,0.7c1.7,0.2,3.4,0.3,5.1,0.4
			c6.8,0.4,13.7,0.3,20.5,0.1l10.2-0.3c3.4-0.1,6.8-0.2,10.2-0.4l1.2-0.1c0.4,0,0.8-0.1,1.1-0.1c0.8-0.1,1.5-0.3,2.3-0.5
			c1.5-0.4,2.8-1,4-1.9c1.2-0.8,2.1-1.9,2.8-3.2c0.7-1.2,1-2.7,1.2-4.1l0-0.1c0.9-4.7,1.5-9.5,2.1-14.2c0.6-4.8,1.1-9.5,1.4-14.3
			c0.3-4.8,0.5-9.6,0.5-14.4c0-4.8-0.1-9.6-0.5-14.3c-0.2-2.4-0.5-4.8-0.8-7.1c-0.4-2.4-0.8-4.7-1.5-6.9c-0.7-2.2-1.5-4.5-2.7-6.4
			c-0.3-0.5-0.6-1-1-1.5l-0.3-0.4l-0.3-0.3l-0.6-0.6l-1.2-1.3l-1.3-1.1c-3.6-3-8-5.1-12.7-6.1c-4.6-1.1-9.5-1.4-14.2-0.9
			c-0.6,0.1-1.2,0.1-1.8,0.2l-1.8,0.3c-1.2,0.2-2.3,0.5-3.5,0.8l-0.9,0.2l-0.8,0.3l-1.7,0.6c-1.1,0.4-2.1,1-3.2,1.4l-1.6,0.9
			l-0.8,0.5l-0.4,0.2c0,0-0.2,0.2-0.3,0.2l-1.4,1l-0.7,0.5l-0.6,0.6l-1.3,1.2c-0.4,0.4-0.8,0.9-1.2,1.3l-1.1,1.3l-1,1.4
			c-0.3,0.5-0.7,0.9-1,1.4l-0.9,1.5c-0.6,1-1.1,2.1-1.7,3.1c-0.6,1-1,2.1-1.5,3.2c-0.5,1.1-0.9,2.2-1.3,3.3c-1.7,4.4-3,9-4.2,13.6
			c-0.3,1.2-0.6,2.3-0.8,3.5c-0.3,1.2-0.5,2.3-0.8,3.5c-0.3,1.2-0.5,2.3-0.7,3.5l-0.7,3.6c-0.8,4.7-1.6,9.5-2.3,14.3
			c-0.7,4.8-1.4,9.6-1.7,14.4c-0.2,2.4-0.3,4.8-0.2,7.2c0,1.2,0.1,2.4,0.3,3.6C44.7,197.9,44.9,199.1,45.6,200L45.6,200z"/>
	</g>
	<g>
		<path fill="#DD6F67" d="M128.6,142.2c-6.1,9.5-19.5,11.7-28.9,5.6c-9.5-6.1-12.2-18.8-6-28.3c6.1-9.5,18.8-12.2,28.3-6
			C131.4,119.6,134.8,132.7,128.6,142.2z"/>
		<g>
			<path d="M128.8,142.3c0,0-0.1,0.1-0.2,0.3c-0.1,0.2-0.3,0.5-0.6,0.9c-0.6,0.8-1.5,1.9-2.8,3.1c-1.3,1.2-3.1,2.5-5.4,3.7
				c-2.3,1.1-5.1,2-8.3,2.1c-3.2,0.2-6.7-0.5-10-2.1c-0.8-0.4-1.6-0.9-2.4-1.4c-0.7-0.5-1.5-1.1-2.2-1.8c-1.4-1.3-2.6-2.9-3.6-4.5
				C91.2,139,90,135,90,131c-0.1-4.1,0.9-8.2,3.1-11.9c2.1-3.6,5.4-6.7,9.3-8.4c3.9-1.7,8.2-2.3,12.2-1.7c4,0.6,7.7,2.4,10.5,4.9
				c2.8,2.4,4.8,5.4,6,8.4c1.1,3,1.5,5.9,1.4,8.5c-0.1,2.5-0.6,4.7-1.1,6.4c-0.6,1.7-1.2,3-1.7,3.8c-0.2,0.4-0.4,0.7-0.6,0.9
				C128.8,142.2,128.8,142.3,128.8,142.3z M128.5,142.1c0,0,0.1-0.1,0.2-0.3c0.1-0.2,0.3-0.5,0.5-0.9c0.4-0.8,1-2.1,1.5-3.8
				c0.4-1.7,0.7-3.8,0.4-6.2c-0.2-2.4-1-5-2.3-7.6c-1.3-2.5-3.2-5.1-5.7-7.1c-2.5-2-5.6-3.6-9.1-4.2c-3.5-0.7-7.3-0.3-10.7,1.1
				c-3.5,1.4-6.7,3.8-8.9,7c-1.1,1.6-2,3.4-2.6,5.2c-0.3,0.9-0.5,1.9-0.7,2.9c-0.1,1-0.2,2-0.2,2.9c0,3.9,1.4,7.7,3.6,10.6
				c1.1,1.5,2.4,2.7,3.7,3.8c0.7,0.6,1.4,1,2.1,1.5c0.7,0.4,1.4,0.8,2.2,1.1c3,1.4,6.1,2,8.9,2.2c2.9,0.1,5.6-0.3,7.9-1
				c1.1-0.4,2.2-0.8,3.1-1.3c0.9-0.5,1.7-1,2.4-1.6c1.4-1.1,2.3-2.1,2.9-2.9c0.3-0.4,0.5-0.7,0.6-0.9
				C128.5,142.2,128.5,142.1,128.5,142.1z"/>
		</g>
	</g>
	<circle cx="108.7" cy="131.3" r="13.1"/>
	<g>
		<path d="M108.7,116.6c8.1,0,14.7,6.6,14.7,14.7c0,8.1-6.6,14.7-14.7,14.7c-8.1,0-14.7-6.6-14.7-14.7
			C94,123.2,100.6,116.6,108.7,116.6 M108.7,115.3c-8.8,0-15.9,7.2-15.9,15.9c0,8.8,7.2,15.9,15.9,15.9s15.9-7.2,15.9-15.9
			C124.7,122.5,117.5,115.3,108.7,115.3L108.7,115.3z"/>
	</g>
	<g>
		<circle fill="#629175" cx="83" cy="131.7" r="16.9"/>
		<g>
			<path d="M93.3,145.3c0,0-0.3,0.2-1,0.7c-0.3,0.2-0.7,0.5-1.2,0.7c-0.3,0.1-0.5,0.3-0.8,0.5c-0.3,0.1-0.6,0.3-0.9,0.4
				c-1.3,0.6-3.1,1.2-5.1,1.5c-2.1,0.3-4.5,0.2-7-0.5c-2.5-0.7-5.1-2.3-7.2-4.5c-0.5-0.6-1-1.1-1.4-1.8c-0.4-0.6-0.8-1.2-1.1-2
				c-0.8-1.4-1.2-3-1.5-4.6c-0.3-1.6-0.3-3.2-0.2-4.9c0.1-1.6,0.5-3.3,1-4.9c0.6-1.6,1.3-3.1,2.3-4.5c1-1.4,2.1-2.7,3.4-3.8
				c0.7-0.5,1.3-1,2.1-1.5c0.8-0.5,1.5-0.8,2.3-1.2c1.6-0.6,3.3-1.1,5.1-1.2c1.7-0.1,3.5,0,5.2,0.3c1.7,0.4,3.3,0.9,4.8,1.7
				c1.5,0.8,2.8,1.8,4,2.9c0.6,0.5,1.1,1.2,1.6,1.8l0.1,0.1l0,0.1l0,0l0.1,0.1l0.2,0.2l0.3,0.5c0.2,0.3,0.4,0.6,0.6,0.9
				c1.6,2.8,2.3,5.6,2.3,8.3c0,2.7-0.6,5-1.5,6.9c-0.8,1.9-1.9,3.4-2.8,4.5c-0.2,0.3-0.5,0.5-0.7,0.8c-0.2,0.2-0.5,0.4-0.7,0.6
				c-0.4,0.4-0.7,0.7-1.1,1L93.3,145.3L93.3,145.3z M93.2,145.1c0,0,0.3-0.3,0.9-0.8c0.3-0.2,0.6-0.6,1-1c0.4-0.4,0.8-0.9,1.2-1.5
				c0.8-1.2,1.7-2.7,2.2-4.6c0.5-1.9,0.7-4.1,0.5-6.4c-0.2-1.2-0.4-2.4-0.8-3.5c-0.4-1.2-0.9-2.4-1.6-3.5c-1.5-2.3-3.4-4.3-5.9-5.8
				c-1.2-0.7-2.6-1.3-4.1-1.7c-1.5-0.4-3-0.5-4.5-0.5c-1.5,0.1-3.1,0.3-4.6,0.8c-0.7,0.3-1.5,0.5-2.2,0.9c-0.7,0.3-1.4,0.8-2.1,1.2
				c-1.3,0.9-2.5,2-3.5,3.3c-1,1.3-1.8,2.7-2.3,4.2c-0.5,1.5-0.8,3.1-0.8,4.7c0,1.6,0.2,3.1,0.6,4.5c0.4,1.4,1,2.8,1.8,4
				c0.3,0.6,0.8,1.2,1.2,1.8c0.4,0.5,0.9,1,1.3,1.5c1.9,1.9,4.1,3.2,6.2,4.1c2.2,0.9,4.4,1.3,6.3,1.3c2,0,3.7-0.4,5-0.8
				c0.7-0.2,1.3-0.5,1.8-0.8c0.5-0.3,0.9-0.5,1.2-0.7C92.8,145.3,93.1,145.1,93.2,145.1z"/>
		</g>
	</g>
	<circle cx="85.7" cy="133.3" r="9.9"/>
	<g>
		<path d="M85.7,121.9c6.3,0,11.3,5.1,11.3,11.3c0,6.3-5.1,11.3-11.3,11.3c-6.3,0-11.3-5.1-11.3-11.3
			C74.3,127,79.4,121.9,85.7,121.9 M85.7,120.6c-7,0-12.6,5.7-12.6,12.6c0,7,5.7,12.6,12.6,12.6c7,0,12.6-5.7,12.6-12.6
			C98.3,126.3,92.6,120.6,85.7,120.6L85.7,120.6z"/>
	</g>
</g>
<g id="Layer_2">
</g>
</svg>
