<?xml version="1.0" encoding="utf-8"?>
<!-- Generator: Adobe Illustrator 16.0.0, SVG Export Plug-In . SVG Version: 6.00 Build 0)  -->
<!DOCTYPE svg PUBLIC "-//W3C//DTD SVG 1.1//EN" "http://www.w3.org/Graphics/SVG/1.1/DTD/svg11.dtd">
<svg version="1.1" id="Layer_1" xmlns="http://www.w3.org/2000/svg" xmlns:xlink="http://www.w3.org/1999/xlink" x="0px" y="0px"
	 width="864px" height="720px" viewBox="0 0 864 720" enable-background="new 0 0 864 720" xml:space="preserve">
<circle cx="633.326" cy="670.747" r="23.984"/>
<circle cx="602.146" cy="667.281" r="23.186"/>
<circle fill="none" stroke="#FFFFFF" stroke-width="2.9073" stroke-miterlimit="10" cx="633.326" cy="670.747" r="23.984"/>
<circle cx="268.964" cy="670.747" r="23.985"/>
<circle cx="237.782" cy="667.281" r="23.186"/>
<circle fill="none" stroke="#FFFFFF" stroke-width="2.9073" stroke-miterlimit="10" cx="268.964" cy="670.747" r="23.985"/>
<g>
	<path fill="#619075" d="M477.026,557.436c0,0,22.493,59.979,28.74,71.227c6.248,11.244,72.475-12.497,72.475-12.497l-24.365-4.998
		l14.369-14.994c0,0-34.987,8.023-44.983,9.634c-9.996,1.611-34.988-50.87-34.988-50.87"/>
	<path d="M477.611,557.216c1.604,2.784,3.103,5.607,4.588,8.435l4.352,8.52c2.839,5.698,5.554,11.443,8.229,17.191l3.957,8.64
		l3.897,8.637l3.868,8.588c0.646,1.412,1.276,2.857,1.942,4.214l0.986,2.062l0.975,1.883l0.238,0.472l0.029,0.061
		c0.221,0.364-0.286-0.464-0.226-0.368l0.021,0.032l0.082,0.122l0.167,0.248c0.1,0.162,0.004-0.026-0.055-0.108
		c-0.063-0.096-0.138-0.184-0.218-0.264c-0.21-0.183-0.092-0.108-0.17-0.158c-0.08-0.068,0.09,0.084,0.42,0.212
		c0.736,0.246,1.929,0.51,3.226,0.634c2.629,0.286,5.634,0.293,8.663,0.244c3.043-0.033,6.156-0.212,9.282-0.464
		c3.131-0.236,6.256-0.658,9.379-1.133c6.235-1.01,12.354-2.645,18.338-4.678c2.995-1.008,5.96-2.11,8.879-3.341
		c2.92-1.207,5.837-2.499,8.658-3.857l0.452,6.38l-12.441-1.234c-4.134-0.476-8.267-0.96-12.366-1.606l-9.652-1.524l6.774-7.707
		l13.724-15.612l6.068,10.694c-4.405,1.185-8.827,2.28-13.268,3.297c-2.229,0.473-4.438,1.007-6.682,1.431
		c-2.245,0.42-4.479,0.889-6.731,1.269l-6.751,1.162c-2.288,0.333-4.607,0.671-6.914,0.961l-3.46,0.442l-1.729,0.082L523.644,611
		h-0.052h-0.106h-0.214h-0.568c-0.246,0-0.494,0.111-0.74,0.087c-0.564-0.052-0.795-0.06-1.125-0.134
		c-0.317-0.076-0.632-0.129-0.884-0.228c-2.175-0.798-3.415-1.812-4.552-2.766c-1.114-0.97-2.033-1.938-2.877-2.924
		c-3.317-3.922-5.749-7.925-8.077-11.999c-2.317-4.057-4.422-8.169-6.371-12.344c-1.986-4.152-3.802-8.369-5.546-12.608
		c-1.725-4.25-3.361-8.523-4.822-12.881l1.129-0.536c4.958,7.663,9.888,15.307,14.934,22.779c2.553,3.716,5.116,7.403,7.771,10.948
		c1.332,1.767,2.692,3.496,4.094,5.137c1.376,1.652,2.803,3.235,4.237,4.581c0.714,0.663,1.431,1.275,2.081,1.731
		c0.626,0.464,1.294,0.744,1.284,0.66c0.014,0.006-0.022-0.022-0.062-0.038c-0.055-0.018-0.009-0.012-0.289-0.056
		c-0.104-0.015-0.21-0.019-0.315-0.015c-0.082,0-0.292,0.032-0.143,0.012l0.21-0.025l0.106-0.012l0.054-0.007l0.026-0.004
		c0.106-0.012-0.83,0.099-0.422,0.048l1.614-0.439l3.229-0.854l13.029-3.371c4.386-1.11,8.785-2.133,13.209-3.132
		c4.43-0.964,8.874-1.851,13.323-2.692l21.493-4.072l-15.425,14.767l-15.016,14.375l-2.877-9.231
		c4.021,1.019,8.011,2.201,11.998,3.392l11.925,3.764l11.691,3.689l-11.239,2.69c-6.292,1.507-12.479,2.974-18.625,4.696
		c-6.146,1.69-12.232,3.547-18.304,5.643l-9.165,3.157c-3.088,1.036-6.219,2.002-9.464,2.812c-3.256,0.786-6.593,1.389-10.312,1.451
		c-1.868-0.007-3.854-0.108-6.16-0.776c-1.173-0.372-2.473-0.862-3.83-1.879c-0.374-0.311-0.602-0.446-1.07-0.931
		c-0.218-0.222-0.426-0.456-0.626-0.696c-0.19-0.228-0.432-0.564-0.432-0.564l-0.167-0.248l-0.082-0.122l-0.283-0.462l-0.038-0.074
		l-0.303-0.588l-1.181-2.359l-1.004-2.259c-0.69-1.513-1.289-2.993-1.919-4.485c-1.219-2.989-2.385-5.971-3.51-8.96
		c-2.229-5.992-4.348-11.997-6.308-18.062c-1.976-6.058-3.834-12.152-5.547-18.299c-0.818-3.087-1.677-6.158-2.442-9.264
		c-0.769-3.104-1.519-6.215-2.147-9.368L477.611,557.216z"/>
</g>
<g>
	<path fill="#619075" d="M555.225,344.799c21.853-47.953,11.598-68.4-24.736-101.694c-45.496-41.688-107.049-61.062-180.299-32.059
		C242.632,253.634,227.251,314.845,225.363,370.08c-1.842,53.896,17.847,95.581,38.78,123.481
		c30.036,40.034,95.76,104.883,254.202,56.929c65.562-25.235,67.771-59.623,74.6-104.421c4.962-48.269-30.208-40.697-56.16-31.865
		c-25.953,8.834-129.418,42.275-174.492,5.364c-41.709-34.154-40.635-65.936-40.635-65.936S542.117,373.564,555.225,344.799z"/>
	<g>
		<path d="M554.736,344.58c3.969-8.917,7.553-18.025,9.594-27.538c1.024-4.743,1.641-9.577,1.608-14.411
			c-0.05-4.828-0.74-9.643-2.151-14.243c-2.837-9.229-8.309-17.42-14.663-24.699c-6.396-7.273-13.59-13.896-20.898-20.279
			c-14.656-12.716-31.07-23.367-48.882-30.627c-17.755-7.35-36.814-11.229-55.87-11.429c-19.08-0.449-38.079,2.99-56.302,8.661
			c-9.14,2.834-17.939,6.511-26.914,10.387c-8.778,3.766-17.458,8.083-25.861,12.693c-16.786,9.297-32.598,20.363-45.932,33.943
			c-13.435,13.454-23.948,29.73-30.476,47.669c-6.643,17.907-9.264,37.311-10.121,56.569l-0.19,7.332
			c-0.086,2.453,0.073,4.813,0.095,7.229l0.081,3.604l0.251,3.616c0.196,2.409,0.3,4.831,0.62,7.229
			c0.997,9.625,2.895,19.149,5.375,28.507c5.087,18.688,13.102,36.614,23.711,52.857c10.686,16.143,23.397,31.17,38.271,43.531
			c14.847,12.419,31.957,21.993,50.152,28.361c18.187,6.456,37.432,9.609,56.693,10.382c19.29,0.795,38.636-0.95,57.702-4.096
			c19.086-3.123,37.913-7.865,56.419-13.625l-0.311,0.105c9.17-3.665,18.107-7.841,26.375-12.927
			c8.233-5.108,15.858-11.059,21.969-18.261c6.135-7.182,10.66-15.547,13.733-24.606c3.098-9.062,4.896-18.728,6.423-28.569
			l2.192-14.904c0.641-4.52,0.78-9.35,0.44-13.863c-0.358-4.51-1.375-8.819-3.319-12.125c-1.942-3.307-4.764-5.504-8.51-6.677
			c-3.733-1.185-8.203-1.316-12.736-0.87c-4.556,0.446-9.212,1.482-13.866,2.729c-4.701,1.26-9.213,2.797-14.087,4.451
			c-4.826,1.615-9.679,3.163-14.552,4.643c-19.502,5.86-39.344,10.813-59.641,13.779c-10.142,1.488-20.388,2.521-30.722,2.847
			c-10.329,0.297-20.764-0.067-31.162-1.732c-10.373-1.633-20.791-4.63-30.317-9.932c-2.356-1.363-4.69-2.783-6.887-4.432
			c-1.133-0.807-2.135-1.646-3.281-2.569l-2.865-2.463c-3.922-3.449-7.712-7.073-11.267-10.868
			c-7.114-7.63-13.395-16.151-18.268-25.527c-2.441-4.682-4.505-9.586-6.063-14.69c-0.786-2.55-1.414-5.159-1.888-7.819
			c-0.239-1.329-0.428-2.675-0.566-4.044c-0.133-1.423-0.237-2.636-0.198-4.381l0.094-4.292l4.25,0.455
			c19.578,2.095,39.271,3.852,58.948,5.365c19.686,1.489,39.398,2.667,59.125,3.419c9.866,0.361,19.734,0.65,29.604,0.689
			c9.869,0.007,19.739-0.153,29.594-0.618c9.852-0.455,19.697-1.285,29.415-2.874c4.849-0.816,9.678-1.817,14.326-3.349
			c2.316-0.774,4.596-1.68,6.685-2.887C551.783,348.211,553.741,346.667,554.736,344.58z M555.712,345.019
			c-1.146,2.432-3.276,4.086-5.428,5.365c-2.181,1.284-4.514,2.229-6.873,3.041c-4.731,1.603-9.604,2.652-14.487,3.519
			c-4.889,0.852-9.809,1.481-14.734,1.996c-4.93,0.499-9.861,0.953-14.802,1.287c-9.88,0.683-19.773,1.058-29.67,1.267
			c-9.896,0.236-19.794,0.372-29.691,0.352c-19.799-0.019-39.592-0.512-59.376-1.232c-19.793-0.726-39.544-1.69-59.352-3.008
			l4.344-3.835c0.02,0.774,0.138,2.076,0.297,3.152c0.162,1.131,0.368,2.275,0.622,3.415c0.497,2.284,1.16,4.553,1.913,6.797
			c1.52,4.49,3.506,8.857,5.849,13.039c4.661,8.391,10.715,16.034,17.482,22.993c3.399,3.494,6.961,6.773,10.658,9.913l2.91,2.408
			c0.833,0.633,1.775,1.403,2.709,2.033c1.858,1.349,3.863,2.507,5.882,3.634c8.21,4.335,17.465,6.95,26.972,8.383
			c9.521,1.446,19.318,1.723,29.115,1.36c9.806-0.392,19.633-1.46,29.412-2.979c19.552-3.115,38.966-7.72,58.035-13.492
			c4.77-1.44,9.518-2.946,14.248-4.523c4.667-1.578,9.697-3.289,14.733-4.629c5.07-1.367,10.303-2.45,15.782-2.95
			c5.462-0.457,11.287-0.39,17.188,1.512c2.929,0.944,5.834,2.439,8.367,4.463c2.547,2.015,4.626,4.576,6.187,7.276
			c3.097,5.471,4.197,11.291,4.607,16.779c0.349,5.532,0.132,10.836-0.682,16.278l-2.359,14.974
			c-1.667,10.032-3.638,20.257-7.163,30.253c-3.485,9.979-8.791,19.609-15.858,27.688c-7.049,8.1-15.552,14.645-24.527,19.962
			c-9,5.316-18.472,9.522-28.067,13.161l-0.185,0.07l-0.128,0.038c-18.939,5.517-38.215,10.061-57.807,12.848
			c-19.584,2.692-39.454,3.951-59.243,2.603c-19.751-1.354-39.479-5.006-58.031-12.097c-18.575-6.979-35.834-17.287-50.882-30.104
			c-7.543-6.396-14.413-13.529-20.87-20.972c-6.401-7.497-12.359-15.339-17.728-23.632c-5.321-8.299-10.137-16.931-14.227-25.91
			c-4.108-8.97-7.471-18.273-10.208-27.753c-2.714-9.486-4.839-19.168-6.051-28.979c-1.194-9.746-1.903-19.85-1.76-29.553
			c0.128-9.953,0.683-19.77,2.043-29.637c1.321-9.844,3.463-19.636,6.638-29.144c6.271-19.041,16.94-36.73,30.716-51.373
			c6.847-7.369,14.458-13.964,22.435-19.999c7.986-6.027,16.379-11.48,25.1-16.279c8.723-4.824,17.559-9.258,26.746-13.236
			c8.979-3.86,18.321-7.577,27.899-10.451c19.107-5.857,39.267-8.794,59.322-7.844c20.044,0.985,39.83,5.9,57.903,14.244
			c18.125,8.269,34.54,19.848,48.894,33.314c7.163,6.761,14.138,13.693,20.378,21.363c6.249,7.592,11.757,16.121,14.466,25.738
			c2.699,9.605,2.351,19.81,0.183,29.386C563.428,326.935,559.74,336.116,555.712,345.019z"/>
	</g>
</g>
<g>
	<path fill="#DD6F67" d="M325.986,372.893c0,0,87.185-15.473,107.673,26.17c20.488,41.645-31.211,100.89-71.025,106.002
		c-12.975,1.667-28.222,1.263-36.648-15.142c-8.426-16.407,1.135-45.431,31.185-48.586c30.049-3.155,15.026-44.799-9.936-35.848"/>
	<path d="M325.937,372.602c0,0.001,6.642-1.684,18.545-3.098c5.948-0.711,13.22-1.311,21.604-1.331
		c8.375-0.041,17.892,0.476,28.143,2.496c5.109,1.063,10.401,2.499,15.702,4.62c5.285,2.125,10.576,5.041,15.286,9.071
		c2.315,2.058,4.514,4.329,6.404,6.902c0.886,1.329,1.889,2.591,2.582,4.057l1.128,2.145l0.28,0.537
		c0.182,0.375,0.172,0.41,0.268,0.632l0.427,1.069l0.853,2.147c0.282,0.723,0.485,1.57,0.729,2.351l0.69,2.393l0.461,2.403
		c0.649,3.199,0.828,6.496,0.815,9.782c-0.05,6.593-1.464,13.143-3.533,19.462c-2.127,6.312-4.954,12.433-8.373,18.265
		c-3.412,5.835-7.357,11.413-11.742,16.667c-4.348,5.286-9.157,10.248-14.394,14.752c-10.44,8.939-22.613,16.568-36.512,19.33
		c-6.765,1.24-13.823,1.778-20.843,0.424c-3.495-0.704-6.95-1.985-10.024-3.905c-3.084-1.909-5.727-4.429-7.874-7.205l-1.537-2.129
		l-1.312-2.229l-0.325-0.558l-0.162-0.278l-0.217-0.471l-0.476-1.084c-0.3-0.752-0.636-1.381-0.906-2.23
		c-0.48-1.755-1.115-3.582-1.257-5.244l-0.349-2.541l-0.063-2.533c-0.085-3.373,0.463-6.661,1.203-9.84
		c0.517-1.547,0.98-3.107,1.582-4.598c0.707-1.445,1.272-2.953,2.104-4.309c3.128-5.527,7.531-10.121,12.547-13.323
		c4.991-3.295,10.571-4.981,15.861-5.89c1.289-0.183,2.564-0.362,3.826-0.543c1.227-0.162,2.541-0.283,3.467-0.556
		c2.036-0.44,4.103-1.234,5.707-2.369c3.3-2.217,5.264-5.746,5.622-9.45c0.413-3.701-0.471-7.328-1.891-10.35
		c-1.494-2.999-3.491-5.456-5.663-7.225c-2.186-1.765-4.525-2.829-6.657-3.388c-2.144-0.578-4.066-0.54-5.612-0.504
		c-1.543,0.141-2.737,0.322-3.517,0.552c-0.792,0.191-1.2,0.289-1.2,0.289l-0.2-0.556c0,0,0.406-0.146,1.193-0.43
		c0.778-0.323,1.983-0.647,3.595-0.972c1.62-0.217,3.681-0.416,6.079-0.001c2.384,0.401,5.09,1.349,7.718,3.111
		c2.634,1.749,5.073,4.38,6.99,7.697c1.837,3.346,3.177,7.455,2.976,12.071c-0.121,4.558-2.375,9.737-6.753,12.896
		c-2.147,1.633-4.576,2.712-7.271,3.434c-1.422,0.431-2.573,0.57-3.813,0.799c-1.204,0.222-2.421,0.448-3.651,0.676
		c-4.681,0.971-9.476,2.598-13.609,5.551c-4.155,2.871-7.812,6.742-10.353,11.458c-2.559,4.684-4.018,10.17-3.972,15.721
		l0.038,2.085l0.286,2.059c0.113,1.446,0.587,2.569,0.858,3.854c0.183,0.648,0.58,1.425,0.858,2.133l0.451,1.093l0.057,0.138
		c-0.023-0.046,0.129,0.294-0.036-0.068l0.132,0.236l0.264,0.471l1.054,1.896l1.224,1.769c3.353,4.653,8.298,7.963,14.192,9.222
		c5.891,1.301,12.353,0.965,18.76,0.018c6.292-0.93,12.503-3.221,18.41-6.148c5.944-2.887,11.626-6.48,16.954-10.562
		c10.591-8.228,19.915-18.344,26.626-29.822c6.696-11.391,10.979-24.328,10.28-36.769c-0.185-3.085-0.549-6.131-1.327-9.036
		l-0.552-2.177l-0.734-2.051c-0.262-0.686-0.438-1.347-0.76-2.043l-0.983-2.092c-2.529-5.188-6.167-9.632-10.434-13.104
		c-4.249-3.52-9.08-6.115-13.959-8.164c-4.892-2.049-9.88-3.492-14.744-4.584c-4.858-1.135-9.62-1.873-14.173-2.397
		c-4.554-0.527-8.906-0.884-13.009-1.071c-8.208-0.391-15.402-0.305-21.331-0.133c-5.932,0.158-10.589,0.521-13.764,0.777
		c-3.18,0.236-4.867,0.432-4.867,0.432L325.937,372.602z"/>
</g>
<path d="M365.87,422.985l-2.379-1.23c-0.818-0.452-1.515-0.744-2.415-1.353c-1.48-0.98-2.994-1.923-4.445-2.937
	c-1.452-1.037-2.95-1.927-4.363-3.082l-4.233-3.443c-1.438-1.142-2.811-2.337-4.094-3.613l-3.912-3.8l-3.681-4.059
	c-0.594-0.694-1.208-1.375-1.786-2.085l-1.667-2.192c-1.085-1.483-2.286-2.885-3.277-4.447c-1.03-1.534-2.029-3.093-3.011-4.664
	l-2.684-4.893c-0.826-1.674-1.577-3.391-2.365-5.088c-0.713-1.737-1.345-3.514-1.977-5.288c-0.507-1.829-1.114-3.612-1.472-5.497
	c-0.413-1.854-0.727-3.756-0.936-5.676c-0.07-0.982-0.191-1.927-0.209-2.935c-0.023-1.036-0.033-1.9,0.046-3.228l0.31-5.219
	l4.755,0.746c4.849,0.761,9.739,1.658,14.617,2.488c4.881,0.848,9.773,1.621,14.677,2.266c4.904,0.626,9.822,1.089,14.75,1.404
	c4.93,0.26,9.862,0.503,14.804,0.536c9.883,0.115,19.785-0.318,29.665-0.678c4.939-0.165,9.874-0.322,14.801-0.358l14.774-0.167
	l29.474-0.533l29.364-0.259c4.882-0.06,9.752-0.242,14.619-0.376c4.862-0.195,9.714-0.455,14.536-0.847
	c4.808-0.456,9.608-0.967,14.258-1.981c2.321-0.492,4.616-1.121,6.755-2.007c2.112-0.911,4.172-2.044,5.516-3.936l1.077,0.49
	c-0.843,2.604-2.854,4.661-4.952,6.244c-2.113,1.647-4.46,2.805-6.803,3.918c-4.732,2.111-9.622,3.687-14.55,4.906
	c-4.922,1.267-9.886,2.218-14.856,3.003c-4.968,0.841-9.954,1.396-14.936,1.924c-4.982,0.548-9.968,0.876-14.952,1.176
	c-4.986,0.268-9.968,0.402-14.948,0.451c-4.979,0.029-9.956-0.062-14.926-0.238c-4.97-0.156-9.936-0.357-14.894-0.633
	c-4.96-0.27-9.918-0.522-14.866-0.91c-4.952-0.332-9.894-0.842-14.83-1.404c-9.871-1.146-19.711-2.547-29.564-3.539
	c-4.925-0.519-9.859-0.868-14.791-1.234c-4.936-0.311-9.879-0.507-14.833-0.574c-4.956-0.05-9.92-0.006-14.892,0.079
	c-4.974,0.06-9.936,0.162-14.931,0.051l5.064-4.473c0.064,0.434,0.176,1.33,0.313,2.046c0.109,0.749,0.291,1.542,0.428,2.308
	c0.373,1.552,0.704,3.115,1.188,4.668c0.379,1.563,0.974,3.102,1.442,4.653l1.699,4.616c0.654,1.514,1.264,3.048,1.95,4.554
	l2.182,4.484c0.81,1.459,1.646,2.906,2.428,4.393c0.76,1.496,1.75,2.87,2.614,4.318l1.341,2.149c0.472,0.701,0.983,1.378,1.473,2.07
	l2.89,4.215l3.156,4.05c0.534,0.671,1.037,1.373,1.554,2.064l1.64,1.966l3.309,3.956c1.044,1.37,2.35,2.633,3.513,3.955
	c1.206,1.297,2.35,2.663,3.528,3.992l3.627,3.793L365.87,422.985z"/>
<path d="M503.938,424.148c-1.212-1.423-2.203-2.951-3.077-4.536c-0.914-1.574-1.646-3.228-2.309-4.922
	c-1.276-3.401-2.177-6.999-2.35-10.883c-0.086-1.938-0.025-3.953,0.448-6.047c0.471-2.074,1.343-4.266,2.93-6.161
	c1.551-1.909,3.863-3.331,6.145-3.862c2.299-0.61,4.434-0.333,6.354-0.052l1.423,0.297l0.176,0.033
	c0.284,0.043,0.168,0.039,0.271,0.061l0.311,0.092l0.622,0.186c0.833,0.227,1.663,0.461,2.503,0.633
	c0.849,0.221,1.753,0.527,2.627,0.766c0.889,0.231,1.777,0.468,2.607,0.791c0.844,0.305,1.707,0.576,2.569,0.855
	c0.834,0.343,1.672,0.69,2.541,1.001c0.888,0.279,1.668,0.748,2.528,1.109c0.854,0.372,1.709,0.763,2.512,1.236
	c1.685,0.855,3.249,1.909,4.808,3.018l2.183,1.833c0.709,0.635,1.349,1.334,2.017,2.017c1.259,1.424,2.425,2.929,3.502,4.513
	c0.534,0.794,1.062,1.599,1.553,2.443c0.514,0.872,0.93,1.628,1.454,2.778l2.223,4.891l-5.738,2.003
	c-3.187,1.112-6.406,2.106-9.682,2.898c-3.271,0.807-6.597,1.417-9.941,1.961c-3.344,0.544-6.735,0.921-10.15,1.205
	c-3.434,0.226-6.883,0.392-10.44,0.166l-0.364-0.024L503.938,424.148z M504.914,423.09c2.743-1.835,5.559-3.375,8.405-4.838
	c3.075-1.515,6.175-2.938,9.323-4.191c3.146-1.255,6.312-2.443,9.532-3.436c3.216-1.007,6.488-1.811,9.794-2.497l-3.516,6.893
	c-0.115-0.44-0.414-1.242-0.68-1.896c-0.271-0.694-0.587-1.381-0.91-2.073c-0.65-1.379-1.415-2.709-2.209-4.033
	c-0.41-0.649-0.822-1.306-1.215-1.984l-1.291-1.959c-0.904-1.277-1.83-2.585-2.895-3.786c-0.502-0.644-1.085-1.189-1.671-1.747
	c-0.584-0.56-1.179-1.129-1.849-1.58c-0.648-0.488-1.328-0.937-2.013-1.391c-0.725-0.365-1.461-0.719-2.207-1.049
	c-0.738-0.381-1.513-0.578-2.281-0.786c-0.786-0.181-1.513-0.432-2.349-0.517c-0.854-0.092-1.717-0.119-2.579-0.153l-0.648-0.012
	l-0.326-0.007c-0.002,0.007-0.222-0.018-0.046,0.014l-0.144,0.018l-1.146,0.178c-1.482,0.271-2.854,0.822-3.716,1.608
	c-0.889,0.783-1.326,1.622-1.694,2.551c-0.351,0.938-0.662,2.031-0.925,3.296c-0.278,1.256-0.464,2.682-0.574,4.168
	c-0.232,2.979-0.186,6.214-0.147,9.535c0.016,1.666,0.071,3.352,0.048,5.088C505,420,504.974,421.525,504.914,423.09z"/>
<path d="M439.147,362.688c0.786,1.393,1.457,2.791,2.063,4.229c0.736,1.751,1.368,3.524,1.938,5.312
	c0.532,1.794,0.988,3.608,1.383,5.433c0.372,1.842,0.798,3.609,0.964,5.541c0.218,1.916,0.32,3.85,0.282,5.777
	c-0.01,0.48-0.016,0.962-0.054,1.442l-0.013,0.18l-0.349,0.09c0.016,0.354-0.363-0.456-0.363-0.365v0.021v0.044l0.328,0.345
	l0.129,0.693l0.057,0.347c-0.008,0.117,0.048,0.038,0.04,0.067c-0.004,0.01-0.013,0.026-0.061,0.059
	c-0.14,0.065-0.019,0.194-0.113,0.369c-0.191,0.535,0.631,1.533,2.105,2.089c1.44,0.571,3.226,0.818,5.003,0.813
	c0.898,0.003,1.807-0.051,2.743-0.117l1.449-0.095l0.376-0.018c-0.126,0.006,0.162-0.015,0.221-0.028
	c0.212-0.033,0.49-0.051,0.646-0.1c0.465-0.137,1.221-0.509,1.803-0.946c0.599-0.478,1.145-1.035,1.604-1.68
	c1.903-2.543,2.478-5.895,2.121-8.381c-0.102-0.498-0.214-1.518-0.315-2.424l-0.238-2.744l-0.433-5.486
	c-0.286-3.657-0.468-7.315-0.356-10.973l5.41,5.477c-4.905-0.23-9.81-0.766-14.711-1.592c-1.225-0.195-2.449-0.453-3.674-0.701
	c-1.225-0.229-2.449-0.511-3.674-0.818C443.352,364.039,441.253,363.431,439.147,362.688z M438.133,361.32
	c2.466-0.868,4.929-1.497,7.39-2.029c1.23-0.278,2.463-0.53,3.691-0.731c1.23-0.217,2.461-0.446,3.691-0.612
	c4.918-0.71,9.832-1.128,14.744-1.243l5.242-0.121l0.17,5.598c0.111,3.657-0.07,7.315-0.356,10.973l-0.433,5.486l-0.237,2.744
	c-0.106,0.923-0.183,1.732-0.419,3.061c-0.438,2.391-1.462,4.525-2.749,6.327c-1.3,1.808-2.871,3.301-4.577,4.562
	c-1.785,1.231-3.512,2.254-6.039,2.664c-0.29,0.04-0.474,0.025-0.716,0.041l-0.772,0.027c-0.404,0.002-0.853,0.02-1.288,0.063
	c-0.889,0.081-1.803,0.201-2.729,0.346c-1.862,0.266-3.76,0.677-5.946,0.744c-1.091,0.002-2.277,0.004-3.579-0.411
	c-1.289-0.337-2.684-1.17-3.794-2.365c-0.48-0.646-1.021-1.231-1.337-2.078c-0.172-0.406-0.332-0.828-0.464-1.259l-0.174-0.594
	l-0.084-0.337l-0.16-0.675l-0.072-0.337l-0.01-0.043l-0.004-0.021c0.002,0.078-0.036-0.748-0.022-0.408l-0.016-0.081l-0.032-0.162
	c-0.094-0.432-0.158-0.863-0.226-1.294c-0.267-1.724-0.395-3.441-0.404-5.175c-0.032-1.723-0.204-3.572-0.208-5.367
	c-0.044-1.809,0.006-3.629,0.075-5.463c0.055-1.834,0.171-3.682,0.389-5.552c0.242-1.87,0.462-3.761,0.944-5.688l0.114-0.451
	L438.133,361.32z"/>
<g>
	<path fill="#619075" d="M474.902,120.936c0,0-94.478,0.294-58.564,72.272l28.576,2.763c0,0-46.647-47.562,29.567-64.392"/>
	<path d="M474.906,121.453l-7.253,1.681c-2.401,0.528-4.772,1.184-7.135,1.76c-4.708,1.266-9.342,2.598-13.84,4.15
		c-2.247,0.78-4.466,1.595-6.627,2.505c-2.181,0.862-4.268,1.883-6.336,2.889l-3.018,1.637l-2.909,1.746l-2.787,1.867l-2.656,1.999
		c-0.86,0.691-1.642,1.452-2.512,2.151c-0.839,0.724-1.522,1.572-2.312,2.359c-1.466,1.642-2.832,3.417-3.919,5.392
		c-0.65,0.943-1.018,2.014-1.495,3.058c-0.211,0.531-0.466,1.053-0.645,1.6l-0.452,1.672c-0.311,1.119-0.658,2.247-0.724,3.424
		c-0.124,1.167-0.31,2.341-0.326,3.526l0.117,3.573c0.009,1.195,0.343,2.37,0.497,3.557c0.321,2.381,1.105,4.683,1.812,6.984
		c0.327,1.158,0.88,2.253,1.332,3.374c0.466,1.116,0.945,2.226,1.455,3.318c1.132,2.15,2.333,4.263,3.538,6.351l-2.117-1.456
		l7.208,0.036c2.401,0.019,4.806-0.003,7.205,0.051c2.397,0.067,4.8,0.082,7.189,0.218l7.177,0.362l-3.855,8.065
		c-1.675-1.655-2.979-3.138-4.354-4.789c-1.329-1.635-2.615-3.314-3.798-5.08c-1.172-1.775-2.295-3.597-3.295-5.522
		c-1.008-1.915-1.949-3.904-2.663-6.02c-0.76-2.09-1.333-4.299-1.71-6.569c-0.188-1.136-0.268-2.312-0.394-3.466
		c-0.022-1.181-0.024-2.365,0.03-3.549c0.144-1.19,0.21-2.384,0.454-3.562c0.282-1.171,0.488-2.363,0.92-3.489
		c0.774-2.281,1.803-4.465,3.1-6.432c0.692-0.945,1.322-1.95,2.079-2.815l2.311-2.537c1.677-1.493,3.321-3.015,5.175-4.154
		c1.765-1.307,3.693-2.2,5.536-3.255c1.902-0.878,3.817-1.743,5.762-2.427c1.967-0.614,3.862-1.43,5.86-1.838
		c1.985-0.451,3.92-1.05,5.919-1.339c1.998-0.295,3.951-0.729,5.952-0.898c1.993-0.202,3.985-0.357,5.971-0.485l0.224,1.011
		c-1.82,0.805-3.634,1.583-5.446,2.315c-1.812,0.738-3.569,1.589-5.338,2.371c-1.789,0.734-3.472,1.677-5.187,2.508
		c-1.73,0.816-3.325,1.823-4.974,2.713c-1.627,0.926-3.111,2.034-4.662,2.995c-1.408,1.129-2.945,2.114-4.167,3.363
		c-1.341,1.151-2.453,2.424-3.594,3.657l-1.442,1.986c-0.471,0.659-0.786,1.386-1.196,2.06c-0.696,1.402-1.283,2.812-1.649,4.282
		c-0.364,1.469-0.554,2.969-0.624,4.499l0.064,2.327c0.109,0.79,0.153,1.575,0.292,2.369c0.308,1.586,0.656,3.198,1.196,4.806
		c0.522,1.602,1.126,3.227,1.856,4.822c0.709,1.602,1.551,3.175,2.443,4.729c0.916,1.545,1.877,3.082,2.913,4.569
		c1.019,1.452,2.207,3,3.229,4.186l8.478,9.835l-12.331-1.769l-7.111-1.019c-2.373-0.324-4.734-0.771-7.099-1.164
		c-2.365-0.406-4.722-0.89-7.083-1.331l-7.08-1.346l-1.706-0.324l-0.412-1.131l-2.601-7.152c-0.655-2.466-1.612-4.802-2.184-7.277
		c-0.575-2.473-1.328-4.886-1.667-7.419c-0.562-2.484-0.735-5.036-1.019-7.595c-0.067-2.568-0.233-5.178,0.079-7.805l0.167-1.983
		c0.087-0.657,0.258-1.303,0.386-1.96c0.275-1.309,0.457-2.667,0.951-3.931c0.772-2.612,1.932-5.117,3.308-7.511
		c0.771-1.127,1.477-2.344,2.338-3.413c0.872-1.052,1.735-2.148,2.699-3.121c0.98-0.945,1.989-1.88,3.019-2.775l3.259-2.429
		l3.447-2.075c1.179-0.621,2.379-1.185,3.567-1.775c4.808-2.208,9.8-3.769,14.834-4.84c2.513-0.559,5.048-0.958,7.583-1.266
		c2.531-0.326,5.076-0.475,7.611-0.573c2.533-0.12,5.074-0.049,7.599,0.064c2.529,0.156,5.048,0.387,7.556,0.862L474.906,121.453z"
		/>
</g>
<g>
	<path fill="#619075" d="M327.464,129.269c0,0-77.831,37.683-7.998,90.397l26.75-9.645c0,0-66.422-25.001-7.869-73.628"/>
	<path d="M327.698,129.75c-1.9,1.555-3.78,3.115-5.604,4.705c-1.848,1.556-3.611,3.195-5.375,4.788
		c-3.458,3.278-6.776,6.6-9.739,10.114c-2.959,3.511-5.579,7.194-7.623,11.043c-2.006,3.875-3.487,7.841-4.323,11.982
		c-0.875,4.13-0.97,8.538-0.129,13c0.833,4.452,2.636,8.897,5.245,12.847c1.266,2.003,2.765,3.865,4.334,5.657
		c1.585,1.783,3.292,3.463,5.085,5.047c1.795,1.585,3.691,3.056,5.642,4.45c1.935,1.417,3.983,2.682,6.009,3.958l-2.743-0.416
		c4.318-1.996,8.605-4.08,12.948-6.006c4.329-1.965,8.724-3.748,13.117-5.536l-0.065,9.254c-2.261-0.807-4.129-1.605-6.124-2.527
		c-1.956-0.915-3.888-1.884-5.764-2.975c-3.748-2.178-7.427-4.617-10.763-7.637c-3.337-2.994-6.402-6.529-8.714-10.697
		c-2.345-4.13-3.833-8.969-4.041-13.851c-0.196-4.887,0.796-9.676,2.589-13.884c0.883-2.12,1.98-4.083,3.133-5.972
		c1.156-1.887,2.502-3.612,3.872-5.274c1.39-1.647,2.816-3.229,4.36-4.68c1.538-1.453,3.092-2.86,4.724-4.164
		c1.64-1.295,3.289-2.552,5.007-3.709c1.702-1.175,3.472-2.248,5.25-3.285l0.682,0.822c-2.62,3.149-5.229,6.224-7.61,9.415
		c-1.201,1.586-2.363,3.177-3.445,4.807c-1.065,1.641-2.123,3.255-3.05,4.924c-1.831,3.344-3.406,6.727-4.293,10.15
		c-0.868,3.414-1.257,6.78-0.743,9.972c0.258,1.591,0.618,3.149,1.198,4.657c0.579,1.504,1.303,2.973,2.169,4.396
		c1.755,2.836,4.034,5.499,6.64,7.978c2.619,2.461,5.513,4.804,8.661,6.853c1.569,1.027,3.177,2.022,4.824,2.948
		c1.611,0.911,3.412,1.827,4.915,2.502l12.075,5.428l-12.14,3.826c-4.524,1.427-9.044,2.859-13.632,4.109
		c-4.573,1.289-9.203,2.42-13.802,3.638l-1.779,0.471l-0.965-0.887c-1.837-1.688-3.618-3.434-5.409-5.157l-5.22-5.318l-2.545-2.716
		l-2.475-2.784c-1.605-1.899-3.229-3.786-4.729-5.795c-3.031-3.974-5.934-8.204-8.056-13.04c-2.159-4.795-3.41-10.288-3.098-15.84
		c0.292-5.548,2.144-10.933,4.875-15.557c2.694-4.669,6.149-8.708,9.947-12.204c3.808-3.494,7.969-6.471,12.376-8.934
		c2.176-1.271,4.457-2.352,6.746-3.367c2.314-0.978,4.655-1.861,7.108-2.491L327.698,129.75z"/>
</g>
<path d="M659.532,632c0,0-387.91,0-426.155,0c-38.246,0-54.728-1.285-63.514-13.84c-12.467-17.817-25.354-8.596-20.582,3.896
	C160.702,651.961,173.277,654,232.011,654s390.643,0,427.521,0c36.878,0,69.432-3.029,76.83-25.198
	c5.122-15.346-11.828-8.6-17.999-4.584C708.768,630.465,692.312,632,659.532,632z"/>
<path d="M297.349,356.486c0-0.001-0.128-0.227-0.301-0.655c-0.155-0.424-0.447-1.062-0.644-1.861
	c-0.472-1.609-0.888-3.923-0.903-6.716c0.009-2.78,0.496-6.026,1.724-9.382c0.652-1.661,1.397-3.388,2.47-5.012
	c0.99-1.667,2.287-3.223,3.692-4.708c1.473-1.423,3.074-2.774,4.872-3.817c1.756-1.092,3.675-1.882,5.56-2.435
	c1.9-0.53,3.78-0.78,5.532-0.817c0.882,0.032,1.723,0.018,2.53,0.111c0.807,0.131,1.57,0.237,2.294,0.392
	c1.438,0.356,2.707,0.81,3.769,1.321c1.063,0.488,1.953,0.987,2.64,1.492c0.697,0.457,1.206,0.94,1.555,1.213
	c0.345,0.295,0.52,0.477,0.52,0.477l-0.146,0.807c0,0-0.798-0.09-2.196-0.246c-0.695-0.107-1.551-0.075-2.522-0.126
	c-0.972-0.034-2.069,0.056-3.256,0.108c-0.591,0.068-1.208,0.139-1.845,0.212c-0.631,0.105-1.276,0.257-1.942,0.388
	c-1.322,0.319-2.68,0.774-4.038,1.357c-1.341,0.62-2.684,1.353-3.942,2.261c-1.271,0.889-2.458,1.936-3.562,3.064
	c-4.528,4.466-7.336,10.422-8.894,14.95c-1.608,4.551-2.155,7.735-2.155,7.735L297.349,356.486z"/>
<g>
	<path fill="#619075" d="M342.037,552.756c0,0-1.583,51.278-0.109,61.307c1.475,10.029,55.196,21.931,55.196,21.931l-11.208-16.495
		l17.528-12.017c0,0-30.026-4.294-38.532-6.816c-8.505-2.527-13.875-43.817-13.875-43.817"/>
	<path d="M342.586,552.771c0.768,5.103,1.188,10.188,1.664,15.272c0.371,5.08,0.76,10.158,1.012,15.224
		c0.29,5.066,0.461,10.128,0.691,15.158l0.323,7.505c0.06,1.236,0.104,2.489,0.203,3.676l0.131,1.797l0.177,1.608l0.019,0.202
		l0.01,0.1l0.003,0.026c-0.135-0.723-0.034-0.184-0.062-0.336l0.013,0.058l0.052,0.232c0.014,0.058,0.049,0.226,0.027,0.074
		c-0.013-0.145-0.105-0.36-0.136-0.421c0.004-0.01,0-0.016-0.011-0.018c0.035,0.042,0.172,0.276,0.399,0.526
		c0.504,0.516,1.256,1.188,2.114,1.811c1.724,1.276,3.74,2.605,5.835,3.827c2.081,1.281,4.263,2.499,6.485,3.676
		c2.219,1.187,4.512,2.247,6.829,3.262c9.309,3.957,19.358,5.996,29.402,7.064l-3.096,4.566l-6.549-7.607l-3.175-3.87l-3.063-3.945
		l-2.867-3.693l4.144-3.069l8.542-6.332l8.571-6.287l2.377,10.174c-3.608-0.388-7.182-0.79-10.754-1.322
		c-3.568-0.53-7.127-1.158-10.68-1.868c-1.771-0.341-3.552-0.776-5.327-1.161c-1.771-0.361-3.55-0.866-5.339-1.336l-2.676-0.713
		l-2.794-0.866l-1.387-0.45c-0.904-0.308-0.394-0.142-1.111-0.448c-0.295-0.14-0.59-0.296-0.864-0.458l-0.56-0.386
		c-1.419-1.066-2.191-2.14-2.876-3.146c-1.301-2.017-2.05-3.894-2.739-5.759c-0.675-1.853-1.172-3.695-1.615-5.523
		c-0.868-3.66-1.548-7.273-2.012-10.909c-0.501-3.623-0.856-7.246-1.091-10.874c-0.248-3.625-0.364-7.253-0.33-10.895l1.088-0.14
		c2.004,6.933,4.01,13.833,6.171,20.582c1.131,3.357,2.23,6.701,3.54,9.878c0.653,1.585,1.353,3.127,2.068,4.58
		c0.721,1.429,1.535,2.809,2.323,3.711c0.371,0.435,0.778,0.753,0.839,0.711l0.003-0.019c-0.076-0.058-0.171-0.113-0.267-0.149
		c-0.313-0.116,0.62,0.214,0.148,0.012c0.412,0.058,0.82,0.122,1.224,0.198l2.427,0.43l2.598,0.356l10.495,1.4
		c3.521,0.492,7.042,1.011,10.561,1.585c3.516,0.566,7.035,1.238,10.525,1.879l14.217,2.603l-11.84,7.573l-8.956,5.729l-8.985,5.684
		l1.275-6.763l2.541,4.302l2.429,4.378l4.659,8.888l3.627,6.919l-6.724-2.354c-4.899-1.714-9.7-3.417-14.594-4.892
		c-4.885-1.486-9.796-2.831-14.818-3.945l-7.588-1.663c-2.549-0.566-5.098-1.2-7.665-1.967c-2.542-0.84-5.112-1.729-7.684-3.169
		c-1.279-0.742-2.595-1.568-3.918-2.819c-0.663-0.654-1.363-1.385-1.995-2.425l-0.456-0.86c-0.166-0.347-0.356-0.864-0.487-1.305
		c-0.088-0.298-0.076-0.286-0.1-0.382l-0.053-0.232l-0.013-0.058l-0.078-0.431l-0.015-0.136l-0.029-0.272l-0.214-2.177l-0.087-2.009
		c-0.069-1.347-0.075-2.633-0.097-3.936c-0.019-2.599,0.021-5.166,0.085-7.729c0.16-5.127,0.419-10.221,0.828-15.312
		c0.368-5.09,0.955-10.168,1.541-15.242c0.697-5.07,1.375-10.138,2.443-15.19L342.586,552.771z"/>
</g>
<g>
	<path fill="#DC6F67" d="M416.872,120.797c-18.667,28.803-59.19,35.69-87.993,17.032c-28.803-18.665-37.021-57.138-18.358-85.939
		c18.661-28.801,57.136-37.02,85.936-18.357C425.256,52.189,435.528,91.994,416.872,120.797z"/>
	<g>
		<path fill="#231F20" d="M417.226,121.033c0,0-0.22,0.322-0.639,0.938c-0.433,0.609-1.003,1.547-1.917,2.692
			c-1.746,2.336-4.433,5.659-8.458,9.352c-4.044,3.636-9.375,7.733-16.35,11.098c-6.932,3.364-15.522,6.042-25.239,6.472
			c-9.67,0.47-20.432-1.483-30.451-6.509c-2.535-1.272-4.845-2.706-7.371-4.383c-2.111-1.512-4.569-3.428-6.662-5.427
			c-4.299-3.96-7.986-8.697-11.094-13.806c-6.106-10.316-9.566-22.401-9.803-34.761c-0.188-12.329,2.784-25.061,9.321-36.07
			c6.409-11.033,16.358-20.308,28.138-25.526c11.718-5.312,24.84-6.933,37.054-5.051c12.226,1.891,23.446,7.361,31.907,14.83
			c8.606,7.354,14.675,16.49,18.14,25.565c3.476,9.112,4.524,18.048,4.305,25.76c-0.231,7.749-1.79,14.297-3.474,19.478
			c-1.749,5.173-3.651,9.013-5.089,11.538c-0.68,1.287-1.32,2.201-1.71,2.844C417.437,120.701,417.226,121.033,417.226,121.033z
			 M416.519,120.561c0,0,0.19-0.324,0.567-0.962c0.362-0.645,0.968-1.56,1.601-2.846c1.339-2.515,3.17-6.338,4.414-11.517
			c1.321-5.131,2.052-11.641,1.241-18.899c-0.742-7.252-3.025-15.216-7.039-22.999c-4.076-7.719-9.664-15.469-17.331-21.691
			c-7.624-6.227-17.14-10.925-27.684-12.891c-10.521-2.021-22.061-0.998-32.624,3.271c-10.536,4.247-20.262,11.458-27.193,21.13
			c-3.412,4.853-6.166,10.207-8.04,15.885c-0.863,2.857-1.561,5.767-2.021,8.715c-0.4,2.954-0.594,5.929-0.581,8.895
			c0.124,11.89,4.33,23.399,11.078,32.231c3.329,4.452,7.205,8.319,11.392,11.521c2.075,1.677,4.12,2.923,6.499,4.45
			c2.069,1.205,4.382,2.501,6.638,3.472c9.019,4.278,18.437,6.061,27.173,6.549c8.768,0.36,16.961-0.829,23.898-3.103
			c3.479-1.118,6.645-2.5,9.426-4.054c2.797-1.524,5.27-3.144,7.321-4.834c4.2-3.273,6.985-6.49,8.704-8.748
			c0.896-1.102,1.487-2.053,1.921-2.654C416.303,120.873,416.519,120.561,416.519,120.561z"/>
	</g>
</g>
<path fill="#231F20" d="M396.145,87.545c0,22.03-17.848,39.878-39.873,39.878s-39.88-17.848-39.88-39.878
	c0-22.019,17.854-39.877,39.88-39.877S396.145,65.526,396.145,87.545z"/>
<path fill="#231F20" d="M356.271,42.97c24.62,0,44.575,19.962,44.575,44.576c0,24.625-19.955,44.58-44.575,44.58
	c-24.623,0-44.576-19.955-44.576-44.58C311.695,62.932,331.648,42.97,356.271,42.97 M356.271,39.076
	c-26.728,0-48.471,21.743-48.471,48.469c0,26.729,21.743,48.474,48.471,48.474s48.471-21.745,48.471-48.474
	C404.742,60.819,382.999,39.076,356.271,39.076L356.271,39.076z"/>
<g>
	<path fill="#222B3A" d="M483.102,147.939c-18.734-19.25-18.32-50.046,0.925-68.785c19.257-18.74,50.048-18.328,68.786,0.931
		c18.742,19.25,18.328,50.043-0.926,68.781C532.635,167.602,501.837,167.186,483.102,147.939z"/>
	<g>
		<path fill="#231F20" d="M482.842,148.168c0,0-0.799-0.884-2.294-2.551c-0.787-0.796-1.617-1.912-2.573-3.255
			c-0.466-0.674-1.043-1.354-1.57-2.131c-0.499-0.798-1.026-1.648-1.586-2.546c-2.107-3.646-4.553-8.271-6.047-14.113
			c-1.492-5.789-2.311-12.766-1.078-20.267c1.225-7.468,4.679-15.297,10.268-22c1.495-1.642,2.913-3.143,4.712-4.78
			c1.67-1.315,3.199-2.671,5.27-3.919c3.858-2.661,8.053-4.464,12.48-5.942c4.437-1.448,9.133-2.044,13.83-2.385
			c4.729-0.163,9.491,0.225,14.203,1.162c4.697,1.017,9.272,2.691,13.646,4.866c4.367,2.21,8.388,5.118,12.068,8.452
			c1.78,1.907,3.411,3.313,4.982,5.467c1.677,1.968,2.963,4.1,4.303,6.224c2.41,4.395,4.273,9.106,5.312,14.006
			c0.96,4.898,1.285,9.898,0.895,14.808c-0.508,4.889-1.487,9.708-3.243,14.192c-1.759,4.464-4.018,8.697-6.92,12.316
			c-1.325,1.914-2.966,3.524-4.497,5.19l-0.295,0.305l-0.146,0.151l-0.073,0.077l-0.212,0.194l-0.598,0.509l-1.189,1.018
			c-0.826,0.671-1.498,1.346-2.436,2.008c-7.32,5.485-15.123,8.48-22.721,9.484c-7.562,0.971-14.521-0.054-20.273-1.724
			c-5.804-1.661-10.368-4.231-13.955-6.447c-0.881-0.587-1.714-1.139-2.498-1.66c-0.763-0.55-1.422-1.144-2.079-1.626
			c-1.305-0.995-2.394-1.859-3.175-2.679l-2.5-2.395L482.842,148.168z M483.354,147.703c0.002,0,0.88,0.789,2.527,2.274
			c0.791,0.784,1.891,1.602,3.199,2.534c1.252,1.018,2.87,1.916,4.687,2.896c3.621,1.924,8.342,3.811,13.962,4.543
			c5.587,0.815,11.994,0.631,18.546-0.991c3.243-0.925,6.595-1.924,9.81-3.54c3.277-1.454,6.433-3.554,9.281-5.709
			c6.144-4.995,11.091-11.245,14.381-18.929c1.663-3.805,2.651-7.945,3.265-12.19c0.511-4.27,0.34-8.646-0.274-13.008
			c-0.725-4.348-2.074-8.619-3.896-12.741c-1.02-2.005-1.996-4.073-3.259-5.878c-1.028-1.863-2.829-3.824-4.133-5.554
			c-3.135-3.354-6.645-6.411-10.6-8.843c-4.021-2.283-8.34-4.066-12.84-5.059c-4.504-0.886-9.1-1.245-13.573-0.754
			c-4.459,0.536-8.772,1.669-12.717,3.415c-3.885,1.772-7.667,3.905-10.668,6.483c-1.554,1.103-3.068,2.757-4.592,4.181
			c-1.233,1.272-2.617,2.871-3.793,4.327c-4.743,6.075-7.787,12.773-9.584,19.289c-1.736,6.542-2.073,12.949-1.392,18.561
			c0.596,5.645,2.352,10.419,4.193,14.09c0.935,1.841,1.791,3.482,2.775,4.751c0.9,1.323,1.688,2.437,2.464,3.259
			C482.577,146.801,483.348,147.694,483.354,147.703z"/>
	</g>
</g>
<path fill="#231F20" d="M518.036,150.412c-15.609,1.951-29.837-9.125-31.788-24.729c-1.95-15.608,9.114-29.84,24.725-31.791
	c15.605-1.95,29.84,9.12,31.79,24.728C544.713,134.223,533.643,148.461,518.036,150.412z"/>
<path fill="#231F20" d="M546.83,118.111c2.23,17.851-10.433,34.135-28.285,36.367c-17.856,2.231-34.131-10.436-36.362-28.287
	c-2.231-17.854,10.426-34.133,28.281-36.365C528.317,87.594,544.599,100.257,546.83,118.111 M550.466,117.656
	c-2.479-19.831-20.628-33.947-40.456-31.469c-19.827,2.478-33.942,20.626-31.464,40.458c2.479,19.832,20.626,33.948,40.453,31.47
	C538.828,155.637,552.944,137.488,550.466,117.656L550.466,117.656z"/>
</svg>
